<svg width="16" height="16" viewBox="0 0 16 16" fill="none" xmlns="http://www.w3.org/2000/svg">
<g clip-path="url(#clip0_586_3177)">
<path d="M7.9528 9.99996C10.5301 9.99996 12.6195 7.91062 12.6195 5.33329C12.6195 2.75596 10.5301 0.666626 7.9528 0.666626C5.37547 0.666626 3.28613 2.75596 3.28613 5.33329C3.28613 7.91062 5.37547 9.99996 7.9528 9.99996Z" fill="#4C7B29"/>
<path d="M13.1381 9.48206C12.9855 9.32939 12.8228 9.18672 12.6561 9.04739C12.0961 9.76008 11.3814 10.3362 10.5661 10.7322C9.75075 11.1282 8.85609 11.3337 7.94968 11.3333C7.04327 11.3328 6.14881 11.1264 5.33387 10.7296C4.51894 10.3328 3.80482 9.75597 3.24548 9.04272C2.42104 9.72924 1.75827 10.5893 1.30446 11.5614C0.850657 12.5336 0.616995 13.5939 0.620149 14.6667C0.620149 14.8435 0.690387 15.0131 0.815411 15.1381C0.940435 15.2632 1.11 15.3334 1.28682 15.3334H14.6201C14.797 15.3334 14.9665 15.2632 15.0916 15.1381C15.2166 15.0131 15.2868 14.8435 15.2868 14.6667C15.2892 13.7034 15.1005 12.7491 14.7317 11.8592C14.3629 10.9693 13.8213 10.1613 13.1381 9.48206Z" fill="#4C7B29"/>
</g>
<defs>
<clipPath id="clip0_586_3177">
<rect width="16" height="16" fill="white"/>
</clipPath>
</defs>
</svg>
