<svg width="144" height="144" viewBox="0 0 144 144" fill="none" xmlns="http://www.w3.org/2000/svg">
<rect width="144" height="144" rx="72" fill="#E7F2E7"/>
<g clip-path="url(#clip0_766_3412)">
<path d="M63.673 95.25C63.1074 95.2482 62.5482 95.1301 62.0302 94.903C61.5121 94.6759 61.0463 94.3447 60.6617 93.93L40.6142 72.6037C39.8648 71.8051 39.4634 70.7415 39.4982 69.6469C39.533 68.5522 40.0012 67.5163 40.7999 66.7669C41.5985 66.0175 42.6621 65.616 43.7567 65.6508C44.8514 65.6856 45.8873 66.1539 46.6367 66.9525L63.6317 85.0612L98.323 47.1112C98.675 46.6729 99.113 46.3111 99.61 46.0481C100.107 45.7851 100.652 45.6265 101.213 45.582C101.773 45.5375 102.337 45.6081 102.869 45.7894C103.402 45.9707 103.891 46.2589 104.308 46.6362C104.725 47.0136 105.06 47.4722 105.293 47.9839C105.526 48.4955 105.652 49.0494 105.663 49.6116C105.675 50.1737 105.571 50.7322 105.358 51.2528C105.146 51.7734 104.829 52.245 104.428 52.6387L66.7255 93.8887C66.3445 94.311 65.8803 94.6498 65.3621 94.8841C64.8439 95.1184 64.2829 95.2429 63.7142 95.25H63.673Z" fill="#4C7B29"/>
</g>
<defs>
<clipPath id="clip0_766_3412">
<rect width="99" height="99" fill="white" transform="translate(23 21)"/>
</clipPath>
</defs>
</svg>
