<svg width="18" height="18" viewBox="0 0 18 18" fill="none" xmlns="http://www.w3.org/2000/svg">
<g clip-path="url(#clip0_874_3827)">
<path d="M17.2203 12.2597C17.1162 11.7309 16.9053 11.2387 16.6156 10.8028L17.1669 10.2544L16.0306 9.11531L15.4766 9.66656C15.0434 9.37687 14.5512 9.16875 14.0225 9.06468V8.28562H12.4109V9.06468C11.8822 9.17156 11.39 9.37968 10.9569 9.66937L10.4056 9.11812L10.0569 9.46687L9.26937 10.2572L9.82062 10.8084C9.53094 11.2416 9.32281 11.7337 9.21875 12.2625H8.43969V13.8741H9.21875C9.27219 14.1412 9.35375 14.4 9.455 14.6447C9.55625 14.8866 9.68 15.1144 9.82344 15.3281L9.27219 15.8794L10.4112 17.0184L10.9625 16.4672C11.3956 16.7541 11.8878 16.9622 12.4166 17.0691V17.8481H14.0281V17.0691C14.5569 16.9622 15.0491 16.7541 15.4822 16.4644L16.0334 17.0156L17.1725 15.8766L16.6184 15.3253C16.9081 14.8894 17.1162 14.3972 17.2231 13.8684H17.9994V12.2597H17.2203ZM13.2209 14.8444C12.2394 14.8444 11.4434 14.0484 11.4434 13.0669C11.4434 12.0853 12.2394 11.2894 13.2209 11.2894C14.2025 11.2894 14.9956 12.0853 14.9956 13.0669C14.9956 14.0484 14.2025 14.8444 13.2209 14.8444ZM6.36406 8.28562C8.00937 8.28562 9.34531 6.94968 9.34531 5.30437C9.34531 3.65906 8.01219 2.32312 6.36406 2.32312C4.71875 2.32312 3.38281 3.65906 3.38281 5.30437C3.38281 6.94968 4.71594 8.28562 6.36406 8.28562Z" fill="#4C7B29"/>
<path d="M8.15906 14.1553V11.9812H8.99438C9.09562 11.5819 9.25313 11.2022 9.46406 10.8478L8.87344 10.2572L9.82125 9.30654C8.82844 8.66248 7.63875 8.2856 6.36469 8.2856C2.84906 8.28561 0 11.1347 0 14.6475H2.38781V12.5044C2.38781 12.4256 2.44969 12.3637 2.52844 12.3637C2.60437 12.3637 2.66906 12.4256 2.66906 12.5044V14.6475H9.1575C9.09281 14.4844 9.03938 14.3184 8.99438 14.1553H8.15906ZM11.6606 5.31561L11.25 6.67404L12.7434 5.83592C13.1625 5.96529 13.6181 6.04123 14.0962 6.04123C16.1494 6.04123 17.8144 4.72217 17.8144 3.09654C17.8144 1.47092 16.1494 0.151855 14.0962 0.151855C12.0431 0.151855 10.3781 1.47092 10.3781 3.09654C10.3809 3.98248 10.8787 4.77561 11.6606 5.31561ZM12.1247 1.96029H16.0706C16.1494 1.96029 16.2113 2.02217 16.2113 2.10092C16.2113 2.17967 16.1494 2.24154 16.0706 2.24154H12.1247C12.0459 2.24154 11.9841 2.17967 11.9841 2.10092C11.9841 2.02498 12.0459 1.96029 12.1247 1.96029ZM12.1247 2.95311H16.0706C16.1494 2.95311 16.2113 3.01498 16.2113 3.09373C16.2113 3.17248 16.1494 3.23436 16.0706 3.23436H12.1247C12.0459 3.23436 11.9841 3.17248 11.9841 3.09373C11.9841 3.01779 12.0459 2.95311 12.1247 2.95311ZM12.1247 3.94873H16.0706C16.1494 3.94873 16.2113 4.01061 16.2113 4.08936C16.2113 4.16811 16.1494 4.22998 16.0706 4.22998H12.1247C12.0459 4.22998 11.9841 4.16811 11.9841 4.08936C11.9841 4.01061 12.0459 3.94873 12.1247 3.94873Z" fill="#4C7B29"/>
</g>
<defs>
<clipPath id="clip0_874_3827">
<rect width="18" height="18" fill="white"/>
</clipPath>
</defs>
</svg>
