<svg width="32" height="32" viewBox="0 0 32 32" fill="none" xmlns="http://www.w3.org/2000/svg">
<g clip-path="url(#clip0_575_15420)">
<path d="M31.3333 4.0002H18.6667V0.666865C18.6662 0.56872 18.6442 0.471875 18.6021 0.383193C18.5601 0.29451 18.4991 0.216159 18.4234 0.153691C18.3477 0.0912234 18.2591 0.0461675 18.1641 0.0217157C18.069 -0.00273609 17.9698 -0.00598538 17.8733 0.012198L0.54 3.34553C0.387965 3.37495 0.250916 3.45639 0.152379 3.57585C0.0538428 3.69531 -3.34185e-05 3.84534 1.55518e-08 4.0002V28.0002C-3.34185e-05 28.1551 0.0538428 28.3051 0.152379 28.4246C0.250916 28.544 0.387965 28.6254 0.54 28.6549L17.8733 31.9882C17.9699 32.0072 18.0694 32.0043 18.1647 31.9799C18.2599 31.9554 18.3485 31.91 18.424 31.8469C18.5001 31.7848 18.5614 31.7064 18.6034 31.6176C18.6453 31.5288 18.667 31.4318 18.6667 31.3335V28.0002H31.3333C31.5101 28.0002 31.6797 27.93 31.8047 27.8049C31.9298 27.6799 32 27.5103 32 27.3335V4.66686C32 4.49005 31.9298 4.32048 31.8047 4.19546C31.6797 4.07044 31.5101 4.0002 31.3333 4.0002Z" fill="#303C42"/>
<path d="M17.334 30.5266L1.33398 27.4493V4.55061L17.334 1.47461V30.5266Z" fill="#2E7D32"/>
<path d="M30.666 26.6667H18.666V25.3334H21.9993C22.1762 25.3334 22.3457 25.2631 22.4708 25.1381C22.5958 25.0131 22.666 24.8435 22.666 24.6667V23.3334C22.666 23.1566 22.5958 22.987 22.4708 22.862C22.3457 22.7369 22.1762 22.6667 21.9993 22.6667H18.666V21.3334H21.9993C22.1762 21.3334 22.3457 21.2631 22.4708 21.1381C22.5958 21.0131 22.666 20.8435 22.666 20.6667V19.3334C22.666 19.1566 22.5958 18.987 22.4708 18.862C22.3457 18.7369 22.1762 18.6667 21.9993 18.6667H18.666V17.3334H21.9993C22.1762 17.3334 22.3457 17.2631 22.4708 17.1381C22.5958 17.0131 22.666 16.8435 22.666 16.6667V15.3334C22.666 15.1566 22.5958 14.987 22.4708 14.862C22.3457 14.7369 22.1762 14.6667 21.9993 14.6667H18.666V13.3334H21.9993C22.1762 13.3334 22.3457 13.2631 22.4708 13.1381C22.5958 13.0131 22.666 12.8435 22.666 12.6667V11.3334C22.666 11.1566 22.5958 10.987 22.4708 10.862C22.3457 10.7369 22.1762 10.6667 21.9993 10.6667H18.666V9.33337H21.9993C22.1762 9.33337 22.3457 9.26314 22.4708 9.13811C22.5958 9.01309 22.666 8.84352 22.666 8.66671V7.33337C22.666 7.15656 22.5958 6.98699 22.4708 6.86197C22.3457 6.73695 22.1762 6.66671 21.9993 6.66671H18.666V5.33337H30.666V26.6667Z" fill="white"/>
<path d="M24.6667 9.33329H28.6667C28.8435 9.33329 29.013 9.26305 29.1381 9.13803C29.2631 9.01301 29.3333 8.84344 29.3333 8.66663V7.33329C29.3333 7.15648 29.2631 6.98691 29.1381 6.86189C29.013 6.73686 28.8435 6.66663 28.6667 6.66663H24.6667C24.4899 6.66663 24.3203 6.73686 24.1953 6.86189C24.0702 6.98691 24 7.15648 24 7.33329V8.66663C24 8.84344 24.0702 9.01301 24.1953 9.13803C24.3203 9.26305 24.4899 9.33329 24.6667 9.33329ZM24.6667 13.3333H28.6667C28.8435 13.3333 29.013 13.2631 29.1381 13.138C29.2631 13.013 29.3333 12.8434 29.3333 12.6666V11.3333C29.3333 11.1565 29.2631 10.9869 29.1381 10.8619C29.013 10.7369 28.8435 10.6666 28.6667 10.6666H24.6667C24.4899 10.6666 24.3203 10.7369 24.1953 10.8619C24.0702 10.9869 24 11.1565 24 11.3333V12.6666C24 12.8434 24.0702 13.013 24.1953 13.138C24.3203 13.2631 24.4899 13.3333 24.6667 13.3333ZM24.6667 17.3333H28.6667C28.8435 17.3333 29.013 17.2631 29.1381 17.138C29.2631 17.013 29.3333 16.8434 29.3333 16.6666V15.3333C29.3333 15.1565 29.2631 14.9869 29.1381 14.8619C29.013 14.7369 28.8435 14.6666 28.6667 14.6666H24.6667C24.4899 14.6666 24.3203 14.7369 24.1953 14.8619C24.0702 14.9869 24 15.1565 24 15.3333V16.6666C24 16.8434 24.0702 17.013 24.1953 17.138C24.3203 17.2631 24.4899 17.3333 24.6667 17.3333ZM24.6667 21.3333H28.6667C28.8435 21.3333 29.013 21.2631 29.1381 21.138C29.2631 21.013 29.3333 20.8434 29.3333 20.6666V19.3333C29.3333 19.1565 29.2631 18.9869 29.1381 18.8619C29.013 18.7369 28.8435 18.6666 28.6667 18.6666H24.6667C24.4899 18.6666 24.3203 18.7369 24.1953 18.8619C24.0702 18.9869 24 19.1565 24 19.3333V20.6666C24 20.8434 24.0702 21.013 24.1953 21.138C24.3203 21.2631 24.4899 21.3333 24.6667 21.3333ZM24.6667 25.3333H28.6667C28.8435 25.3333 29.013 25.2631 29.1381 25.138C29.2631 25.013 29.3333 24.8434 29.3333 24.6666V23.3333C29.3333 23.1565 29.2631 22.9869 29.1381 22.8619C29.013 22.7369 28.8435 22.6666 28.6667 22.6666H24.6667C24.4899 22.6666 24.3203 22.7369 24.1953 22.8619C24.0702 22.9869 24 23.1565 24 23.3333V24.6666C24 24.8434 24.0702 25.013 24.1953 25.138C24.3203 25.2631 24.4899 25.3333 24.6667 25.3333Z" fill="#303C42"/>
<path d="M11.6323 10.7374C11.474 10.6593 11.2914 10.6467 11.1239 10.7023C10.9564 10.758 10.8176 10.8774 10.7376 11.0347L8.66696 15.176L6.59629 11.0347C6.51071 10.888 6.37249 10.7795 6.20972 10.7311C6.04696 10.6827 5.87187 10.6981 5.72006 10.7742C5.56825 10.8502 5.4511 10.9813 5.39245 11.1406C5.33379 11.3 5.33803 11.4757 5.40429 11.632L7.92162 16.6667L5.40429 21.7014C5.3267 21.8593 5.31465 22.0414 5.37078 22.2081C5.42691 22.3749 5.54666 22.5126 5.70393 22.5914C5.8612 22.6703 6.04325 22.6837 6.21041 22.6289C6.37756 22.574 6.51626 22.4554 6.59629 22.2987L8.66696 18.1574L10.7376 22.2974C10.7768 22.3757 10.8309 22.4456 10.8971 22.503C10.9632 22.5604 11.04 22.6043 11.1231 22.632C11.2062 22.6597 11.2939 22.6708 11.3813 22.6647C11.4686 22.6585 11.5539 22.6352 11.6323 22.596C11.7106 22.5569 11.7805 22.5027 11.8379 22.4366C11.8954 22.3704 11.9392 22.2936 11.9669 22.2106C11.9946 22.1275 12.0057 22.0398 11.9996 21.9524C11.9934 21.865 11.9701 21.7797 11.931 21.7014L9.41229 16.6667L11.9296 11.632C12.0088 11.474 12.022 11.2909 11.9662 11.1231C11.9105 10.9554 11.7904 10.8166 11.6323 10.7374Z" fill="white"/>
<path d="M18.666 5.33337V6.66671H19.9993L18.666 5.33337ZM22.4713 9.13871C22.3459 9.26341 22.1762 9.3334 21.9993 9.33337H18.666V10.6667H21.9993C22.1762 10.6667 22.3457 10.7369 22.4708 10.862C22.5958 10.987 22.666 11.1566 22.666 11.3334V12.6667C22.666 12.8435 22.5958 13.0131 22.4708 13.1381C22.3457 13.2631 22.1762 13.3334 21.9993 13.3334H18.666V14.6667H21.9993C22.1762 14.6667 22.3457 14.7369 22.4708 14.862C22.5958 14.987 22.666 15.1566 22.666 15.3334V16.6667C22.666 16.8435 22.5958 17.0131 22.4708 17.1381C22.3457 17.2631 22.1762 17.3334 21.9993 17.3334H18.666V18.6667H21.9993C22.1762 18.6667 22.3457 18.7369 22.4708 18.862C22.5958 18.987 22.666 19.1566 22.666 19.3334V20.6667C22.666 20.8435 22.5958 21.0131 22.4708 21.1381C22.3457 21.2631 22.1762 21.3334 21.9993 21.3334H18.666V22.6667H21.9993C22.1762 22.6667 22.3457 22.7369 22.4708 22.862C22.5958 22.987 22.666 23.1566 22.666 23.3334V24.6667C22.666 24.8435 22.5958 25.0131 22.4708 25.1381C22.3457 25.2631 22.1762 25.3334 21.9993 25.3334H18.666V26.6667H30.666V17.3334L22.4713 9.13871Z" fill="url(#paint0_linear_575_15420)"/>
<path d="M31.3333 4.0002H18.6667V0.666865C18.6662 0.56872 18.6442 0.471875 18.6021 0.383193C18.5601 0.29451 18.4991 0.216159 18.4234 0.153691C18.3477 0.0912234 18.2591 0.0461675 18.1641 0.0217157C18.069 -0.00273609 17.9698 -0.00598538 17.8733 0.012198L0.54 3.34553C0.387965 3.37495 0.250916 3.45639 0.152379 3.57585C0.0538428 3.69531 -3.34185e-05 3.84534 1.55518e-08 4.0002V28.0002C-3.34185e-05 28.1551 0.0538428 28.3051 0.152379 28.4246C0.250916 28.544 0.387965 28.6254 0.54 28.6549L17.8733 31.9882C17.9699 32.0072 18.0694 32.0043 18.1647 31.9799C18.2599 31.9554 18.3485 31.91 18.424 31.8469C18.5001 31.7848 18.5614 31.7064 18.6034 31.6176C18.6453 31.5288 18.667 31.4318 18.6667 31.3335V28.0002H31.3333C31.5101 28.0002 31.6797 27.93 31.8047 27.8049C31.9298 27.6799 32 27.5103 32 27.3335V4.66686C32 4.49005 31.9298 4.32048 31.8047 4.19546C31.6797 4.07044 31.5101 4.0002 31.3333 4.0002Z" fill="url(#paint1_linear_575_15420)"/>
</g>
<defs>
<linearGradient id="paint0_linear_575_15420" x1="13.3327" y1="10.6667" x2="29.9994" y2="27.3334" gradientUnits="userSpaceOnUse">
<stop stop-opacity="0.1"/>
<stop offset="1" stop-opacity="0"/>
</linearGradient>
<linearGradient id="paint1_linear_575_15420" x1="-1.92267" y1="7.9762" x2="33.412" y2="24.4535" gradientUnits="userSpaceOnUse">
<stop stop-color="white" stop-opacity="0.2"/>
<stop offset="1" stop-color="white" stop-opacity="0"/>
</linearGradient>
<clipPath id="clip0_575_15420">
<rect width="32" height="32" fill="white"/>
</clipPath>
</defs>
</svg>
