<svg width="740" height="740" viewBox="0 0 740 740" fill="none" xmlns="http://www.w3.org/2000/svg">
<path d="M370 712.561C562.902 712.561 719.28 622.239 719.28 510.822C719.28 399.405 562.902 309.083 370 309.083C177.098 309.083 20.7202 399.405 20.7202 510.822C20.7202 622.239 177.098 712.561 370 712.561Z" fill="#EAFBDF"/>
<path d="M123.417 609.02L89.2588 589.292C85.8252 587.308 85.8252 584.112 89.2588 582.128L496.022 347.282C499.456 345.299 505.006 345.299 508.439 347.282L542.598 367.01C546.031 368.994 546.031 372.19 542.598 374.174L135.834 609.02C132.401 611.003 126.851 611.003 123.417 609.02Z" fill="#CAE9B8"/>
<path d="M621.733 490.058C655.99 490.058 683.76 474.022 683.76 454.242C683.76 434.461 655.99 418.426 621.733 418.426C587.477 418.426 559.706 434.461 559.706 454.242C559.706 474.022 587.477 490.058 621.733 490.058Z" fill="#CAE9B8"/>
<path d="M295.467 685.832C327.411 685.832 353.306 670.883 353.306 652.443C353.306 634.003 327.411 619.054 295.467 619.054C263.524 619.054 237.629 634.003 237.629 652.443C237.629 670.883 263.524 685.832 295.467 685.832Z" fill="#CAE9B8"/>
<path d="M127.857 538.572C127.857 538.572 125.356 516.535 114.389 499.441C103.422 482.347 88.3708 471.661 74.3108 470.551C60.2656 469.441 48.914 482.362 63.9508 491.242C78.9876 500.122 105.702 509.179 117.986 542.39L127.857 538.572Z" fill="#66A03B"/>
<path opacity="0.1" d="M127.857 538.572C127.857 538.572 125.356 516.535 114.389 499.441C103.422 482.347 88.3708 471.661 74.3108 470.551C60.2656 469.441 48.914 482.362 63.9508 491.242C78.9876 500.122 105.702 509.179 117.986 542.39L127.857 538.572Z" fill="black"/>
<path d="M123.728 532.844C123.772 532.83 123.832 532.815 123.876 532.8C124.261 532.637 124.438 532.208 124.29 531.823C109.461 495.312 81.2371 480.053 68.3759 477.093C67.9763 476.989 67.5767 477.256 67.4731 477.655C67.3843 478.055 67.636 478.469 68.0356 478.558C80.6304 481.459 108.306 496.436 122.899 532.386C123.047 532.726 123.388 532.904 123.728 532.844Z" fill="white"/>
<path d="M48.6772 533.274C49.95 536.145 53.0876 537.64 55.9884 538.809C58.8892 539.978 62.0564 541.236 63.64 543.959C66.8072 549.435 61.5976 557.146 65.0016 562.474C66.4372 564.709 69.0864 565.893 71.706 566.352C73.8816 566.751 76.0868 566.751 78.292 566.944C79.3576 566.929 80.3936 566.84 81.4148 566.707C84.434 566.263 87.7048 566.13 90.4724 567.669C94.8236 570.111 96.1704 575.616 98.8048 579.849C101.972 584.926 107.581 588.241 113.472 589.055C115.425 589.306 119.066 589.662 121.064 588.552C121.227 588.463 121.345 588.389 121.478 588.285C121.493 588.285 121.508 588.27 121.508 588.256C121.774 587.945 122.13 587.56 122.278 587.338C122.322 587.308 122.337 587.249 122.352 587.205C123.121 584.363 121.863 581.403 121.819 578.473C121.819 578.28 121.804 578.118 121.819 577.94C121.937 574.536 122.041 571.132 122.115 567.728C122.278 561.468 122.352 555.192 122.307 548.932C122.263 544.862 122.751 540.407 121.034 536.574C119.125 532.356 114.389 532.267 112.598 528.123C111.873 526.48 111.503 524.704 110.808 523.032C108.736 518.148 103.718 514.626 98.3904 514.374C90.1172 513.96 82.6876 520.649 74.4144 520.042C72.2684 519.88 70.1816 519.228 68.08 518.829C61.3756 517.571 53.6204 519.48 49.8612 525.148C48.2776 527.546 47.5228 530.684 48.6772 533.274Z" fill="#66A03B"/>
<path d="M123.047 574.166C123.062 574.166 123.091 574.151 123.106 574.151C123.476 574.048 123.713 573.663 123.609 573.293C112.169 530.388 66.9699 524.186 56.3879 524.941C56.0031 524.971 55.7071 525.311 55.7367 525.696C55.7663 526.081 56.1067 526.377 56.4915 526.347C66.8367 525.607 111.059 531.66 122.248 573.648C122.337 574.018 122.677 574.24 123.047 574.166Z" fill="white"/>
<path d="M72.8159 552.425C72.9491 552.395 73.0823 552.336 73.1859 552.232C73.3043 552.114 84.8335 540.748 103.955 543.56C104.34 543.604 104.695 543.352 104.754 542.968C104.814 542.583 104.547 542.228 104.162 542.168C84.3007 539.253 72.2979 551.122 72.1795 551.241C71.8983 551.522 71.9131 551.966 72.1795 552.232C72.3571 552.41 72.5939 552.469 72.8159 552.425Z" fill="white"/>
<path d="M185.118 72.1352C184.719 71.9132 184.171 71.9132 183.609 72.2832L180.501 74.3256L179.82 76.1904C179.406 77.3152 179.85 78.7804 180.664 79.6388C181.167 80.1716 181.64 80.7488 182.084 81.3704C182.765 82.3324 184.008 82.6728 185 82.0216L192.252 77.256C192.8 76.9156 193.332 76.8712 193.732 77.0932L185.118 72.1352ZM173.959 98.7604C172.938 92.8848 169.208 89.9396 164.339 90.354C164.768 91.3308 165.109 92.4704 165.346 93.7876C166.944 103.097 161.054 116.313 152.174 123.299C148.903 125.859 145.691 127.221 142.879 127.458C145.795 133.703 153.15 134.295 160.802 128.272C169.667 121.286 175.558 108.07 173.959 98.7604ZM174.107 58.9484C173.93 58.8596 173.752 58.7708 173.53 58.7264L168.069 57.498C166.914 57.2464 165.523 57.8828 164.976 58.9336L159.84 68.7312C159.603 69.2048 159.174 69.634 158.7 70.0336H158.686C158.419 70.2556 158.123 70.4628 157.812 70.6256L159.411 75.9684C159.751 77.108 160.906 77.5816 161.986 77.1376C163.126 76.6788 164.265 76.3088 165.36 76.0276C166.012 75.85 166.707 75.48 167.314 75.0064C167.802 74.6216 168.232 74.1628 168.468 73.6892L173.604 63.8916C174.166 62.8408 175.558 62.2044 176.697 62.456L182.173 63.6844C182.38 63.7288 182.558 63.8028 182.721 63.8916L174.107 58.9484ZM158.715 153.772C158.493 153.58 158.301 153.313 158.197 152.943L156.347 146.816C156.022 145.691 154.867 145.188 153.772 145.647C152.647 146.106 151.508 146.476 150.398 146.757C150.057 146.846 149.702 146.994 149.332 147.201L149.569 147.985C149.717 148.444 149.954 148.755 150.264 148.932V148.947L158.715 153.772ZM148.237 63.9064C148.044 63.8028 147.852 63.7436 147.63 63.7436C147.304 63.7436 146.949 63.862 146.624 64.1284L138.424 70.5664C138.306 70.6552 138.202 70.7588 138.114 70.8624C138.025 70.9364 137.966 71.0252 137.892 71.0992C137.61 71.4692 137.359 71.9132 137.181 72.3868C137.152 72.4904 137.107 72.6088 137.078 72.6976H137.092C136.944 73.1564 136.856 73.6152 136.87 74.0148L137.359 81.8144C137.433 82.9984 136.841 84.6856 136.086 85.5884C134.739 87.1868 133.481 88.8888 132.282 90.6204C131.883 91.2124 131.202 91.7156 130.477 92.0116C130.24 92.1152 130.003 92.1892 129.766 92.2336C129.648 92.2632 129.544 92.2928 129.426 92.2928C129.263 92.3224 129.115 92.3372 128.952 92.3224L123.698 92.0708H123.58C123.432 92.0708 123.299 92.0856 123.151 92.1152C123.018 92.13 122.899 92.1596 122.766 92.204C122.751 92.204 122.736 92.204 122.722 92.2188C122.574 92.2632 122.44 92.3224 122.292 92.3964C122.026 92.5296 121.76 92.6776 121.538 92.87C121.182 93.166 120.872 93.5508 120.694 93.9504L115.751 105.05C115.307 106.042 115.677 107.152 116.58 107.714L122.426 111.089C122.618 111.577 122.662 112.11 122.559 112.613C122.159 114.389 121.848 116.165 121.641 117.897C121.508 119.066 120.753 120.694 119.88 121.493L119.791 121.567L112.613 128.153C112.48 128.272 112.376 128.39 112.273 128.538C112.258 128.568 112.243 128.582 112.228 128.612C112.11 128.76 112.006 128.908 111.947 129.086C111.488 129.885 111.266 130.921 111.4 131.735L112.776 139.653C112.865 140.156 113.087 140.511 113.412 140.733L121.996 145.676C121.7 145.469 121.478 145.114 121.39 144.626L120.028 136.708C119.939 136.249 119.984 135.701 120.117 135.183C120.324 134.384 120.724 133.6 121.256 133.126L128.42 126.54L128.508 126.466C129.382 125.667 130.136 124.039 130.284 122.87C130.492 121.138 130.788 119.362 131.202 117.586C131.454 116.432 130.832 115.114 129.737 114.641L125.474 112.835C124.379 112.362 123.891 111.104 124.364 110.023L129.308 98.9232C129.5 98.5236 129.781 98.1536 130.151 97.8428C130.773 97.3396 131.587 97.014 132.327 97.0584L137.596 97.31C138.084 97.3396 138.617 97.2212 139.12 97.014C139.845 96.718 140.526 96.2148 140.926 95.6228C142.11 93.8912 143.397 92.204 144.729 90.5908C145.499 89.688 146.076 88.0156 146.002 86.8168L145.514 79.032C145.484 78.6176 145.558 78.144 145.721 77.6852C145.972 76.8416 146.476 76.0276 147.082 75.554L155.267 69.116C155.829 68.672 156.421 68.6128 156.88 68.894L148.237 63.9064ZM135.968 146.594C136.367 145.469 135.923 144.004 135.109 143.146C134.606 142.613 134.132 142.036 133.703 141.414C133.022 140.437 131.779 140.112 130.788 140.748L126.644 143.471L123.639 151.611C123.314 152.499 123.639 153.387 124.364 153.831L124.35 153.846L132.993 158.834C132.253 158.375 131.927 157.487 132.268 156.599L135.968 146.594Z" fill="#B5DA9F"/>
<path d="M128.39 126.51L121.227 133.096C120.694 133.585 120.295 134.354 120.087 135.154L111.489 130.196C111.592 129.796 111.725 129.411 111.918 129.056C111.992 128.878 112.095 128.73 112.199 128.582C112.214 128.553 112.229 128.538 112.243 128.508C112.347 128.36 112.465 128.242 112.584 128.124L119.762 121.538L128.39 126.51Z" fill="#CAE9B8"/>
<path d="M139.12 96.9992C138.617 97.2212 138.084 97.3248 137.596 97.2952L132.327 97.0436C131.587 96.9992 130.758 97.3248 130.151 97.828L121.538 92.8552C121.76 92.6628 122.026 92.5148 122.292 92.3816C122.44 92.3076 122.574 92.2484 122.722 92.204C122.736 92.1892 122.751 92.1892 122.766 92.1892C122.899 92.1448 123.018 92.1152 123.151 92.1004C123.299 92.0708 123.432 92.056 123.58 92.056H123.713L128.967 92.3076C129.13 92.3224 129.278 92.3076 129.441 92.278C129.559 92.2632 129.663 92.2484 129.781 92.2188C130.003 92.1596 130.24 92.0708 130.462 91.9968L130.492 92.0116L139.12 96.9992Z" fill="#CAE9B8"/>
<path d="M193.717 77.0784C193.318 76.8416 192.785 76.886 192.237 77.256L184.985 82.0216C183.994 82.6728 182.765 82.3324 182.07 81.3556C181.626 80.7192 181.167 80.1568 180.649 79.624C179.835 78.7656 179.391 77.2856 179.805 76.1756L180.486 74.3256L183.594 72.2832C184.156 71.928 184.704 71.8984 185.104 72.1352V72.1204L193.717 77.0784Z" fill="#CAE9B8"/>
<path d="M182.706 63.9064C182.543 63.8176 182.366 63.7436 182.158 63.6992L176.682 62.4708C175.543 62.2192 174.152 62.8556 173.589 63.9064L168.454 73.704C168.217 74.1776 167.773 74.6364 167.299 75.0212L158.686 70.0336C159.174 69.634 159.588 69.2048 159.825 68.7312L164.976 58.9336C165.523 57.8828 166.914 57.2464 168.069 57.498L173.53 58.7264C173.752 58.7708 173.93 58.8596 174.107 58.9632V58.9484L182.706 63.9064Z" fill="#CAE9B8"/>
<path d="M156.865 68.8792C156.406 68.6128 155.799 68.6572 155.252 69.1012L147.067 75.5392C146.461 76.0128 145.957 76.8268 145.706 77.6704L137.092 72.7124C137.122 72.6088 137.166 72.4904 137.196 72.4016C137.388 71.928 137.625 71.484 137.906 71.114C137.98 71.0252 138.039 70.9364 138.128 70.8772C138.232 70.7588 138.335 70.6552 138.439 70.5812L146.638 64.1432C146.964 63.8768 147.319 63.7584 147.645 63.7584C147.867 63.7584 148.059 63.8176 148.251 63.9212L156.865 68.8792Z" fill="#CAE9B8"/>
<path d="M195.76 86.1064L194.398 78.1884C194.191 77.0192 193.229 76.6048 192.237 77.256L184.985 82.0216C183.994 82.6728 182.75 82.3324 182.07 81.3704C181.626 80.7488 181.167 80.1716 180.664 79.6388C179.85 78.7804 179.406 77.3004 179.82 76.1904L183.52 66.1856C183.934 65.0756 183.328 63.9656 182.173 63.6992L176.712 62.4708C175.558 62.2044 174.166 62.8556 173.619 63.9064L168.483 73.6892C167.936 74.74 166.53 75.7316 165.375 76.0276C164.28 76.3088 163.155 76.6788 162.016 77.1376C160.92 77.5816 159.781 77.0932 159.426 75.9536L157.576 69.8264C157.235 68.6868 156.199 68.3612 155.267 69.1012L147.082 75.5392C146.15 76.2792 145.454 77.8332 145.528 79.0172L146.017 86.802C146.091 87.986 145.499 89.6584 144.744 90.576C143.397 92.1744 142.139 93.8616 140.94 95.608C140.274 96.5848 138.794 97.3544 137.61 97.2952L132.342 97.0288C131.158 96.9696 129.796 97.7984 129.322 98.8788L124.379 109.979C123.891 111.059 124.394 112.317 125.474 112.791L129.722 114.611C130.817 115.07 131.439 116.387 131.187 117.542C130.788 119.332 130.477 121.094 130.27 122.84C130.136 124.024 129.367 125.637 128.494 126.436L121.242 133.111C120.368 133.91 119.821 135.509 120.028 136.678L121.39 144.596C121.597 145.765 122.559 146.18 123.55 145.528L130.802 140.763C131.794 140.112 133.037 140.452 133.718 141.414C134.162 142.036 134.621 142.613 135.124 143.146C135.938 144.004 136.382 145.484 135.968 146.594L132.268 156.599C131.853 157.709 132.46 158.819 133.614 159.085L139.076 160.314C140.23 160.58 141.621 159.929 142.169 158.878L147.304 149.095C147.852 148.044 149.258 147.053 150.412 146.757C151.508 146.476 152.632 146.106 153.772 145.647C154.867 145.203 156.007 145.691 156.362 146.831L158.212 152.958C158.552 154.098 159.588 154.423 160.521 153.683L168.705 147.245C169.638 146.505 170.333 144.951 170.259 143.767L169.771 135.982C169.697 134.798 170.289 133.126 171.044 132.208C172.39 130.61 173.648 128.923 174.847 127.176C175.513 126.2 176.993 125.43 178.177 125.489L183.446 125.756C184.63 125.815 185.992 124.986 186.465 123.906L191.408 112.806C191.897 111.725 191.394 110.467 190.313 109.994L186.066 108.173C184.97 107.714 184.349 106.397 184.6 105.243C185 103.452 185.311 101.691 185.518 99.9444C185.651 98.7604 186.421 97.1472 187.294 96.348L194.546 89.6732C195.419 88.874 195.967 87.2756 195.76 86.1064ZM160.787 128.272C151.907 135.242 143.412 133.348 141.814 124.024C140.215 114.7 146.106 101.484 154.971 94.5128C163.851 87.542 172.346 89.4364 173.944 98.7604C175.558 108.084 169.667 121.286 160.787 128.272Z" fill="#85C058"/>
<path d="M269.656 121.834V121.848C269.168 121.552 268.517 121.567 267.836 122.011L264.077 124.483L263.248 126.732C262.745 128.079 263.277 129.87 264.269 130.906C264.876 131.542 265.453 132.238 265.986 133.008C266.815 134.162 268.309 134.576 269.493 133.792L278.255 128.02C278.906 127.606 279.557 127.546 280.031 127.828L269.656 121.834ZM256.173 154.009C254.945 146.905 250.431 143.368 244.555 143.841C245.073 145.025 245.488 146.402 245.769 148C247.708 159.248 240.574 175.217 229.859 183.653C225.907 186.746 222.03 188.404 218.626 188.67C222.133 196.218 231.043 196.929 240.278 189.662C250.993 181.226 258.112 165.257 256.173 154.009ZM256.366 105.909V105.924C256.159 105.805 255.937 105.702 255.67 105.642L249.069 104.148C247.663 103.837 245.991 104.621 245.325 105.879L239.109 117.719C238.813 118.296 238.31 118.814 237.718 119.288H237.703C237.377 119.569 237.022 119.806 236.652 119.998L238.591 126.451C239.005 127.813 240.397 128.405 241.714 127.872C243.105 127.324 244.467 126.866 245.784 126.54C246.568 126.333 247.412 125.889 248.137 125.312C248.729 124.838 249.247 124.29 249.543 123.713L255.744 111.873C256.425 110.615 258.097 109.831 259.489 110.142L266.104 111.636C266.341 111.681 266.578 111.77 266.755 111.873L256.366 105.909ZM237.762 220.476C237.481 220.254 237.259 219.928 237.141 219.469L234.906 212.054C234.506 210.693 233.13 210.086 231.783 210.634C230.421 211.181 229.045 211.64 227.713 211.966C227.299 212.069 226.869 212.262 226.425 212.498L226.721 213.446C226.899 213.993 227.195 214.378 227.565 214.585V214.6L237.762 220.476ZM225.108 111.903C224.886 111.784 224.635 111.71 224.383 111.71C223.983 111.71 223.569 111.844 223.169 112.184L213.268 119.954C213.135 120.058 213.002 120.176 212.883 120.324C212.78 120.413 212.706 120.516 212.617 120.62C212.277 121.064 211.981 121.612 211.759 122.174C211.729 122.292 211.67 122.44 211.64 122.559H211.655C211.477 123.106 211.359 123.669 211.389 124.157L211.981 133.57C212.069 135.006 211.359 137.033 210.441 138.128C208.813 140.067 207.289 142.11 205.853 144.211C205.365 144.922 204.551 145.528 203.678 145.884C203.382 146.002 203.101 146.091 202.819 146.15C202.686 146.18 202.538 146.224 202.405 146.224C202.213 146.254 202.02 146.283 201.828 146.254L195.479 145.943H195.316C195.138 145.943 194.975 145.958 194.798 146.002C194.635 146.017 194.487 146.061 194.324 146.106C194.309 146.106 194.295 146.106 194.265 146.12C194.087 146.18 193.925 146.239 193.747 146.328C193.421 146.49 193.111 146.668 192.829 146.905C192.4 147.275 192.03 147.719 191.808 148.207L185.829 161.601C185.296 162.8 185.74 164.147 186.835 164.828L193.895 168.898C194.117 169.49 194.191 170.126 194.058 170.733C193.569 172.879 193.185 175.025 192.948 177.126C192.785 178.547 191.867 180.501 190.817 181.478L190.713 181.566L182.04 189.529C181.877 189.662 181.744 189.825 181.626 190.002C181.611 190.032 181.596 190.062 181.567 190.091C181.433 190.269 181.3 190.461 181.226 190.668C180.679 191.645 180.397 192.888 180.575 193.865L182.233 203.426C182.336 204.033 182.617 204.462 182.987 204.728L193.362 210.708C192.992 210.471 192.741 210.027 192.637 209.45L190.994 199.889C190.891 199.341 190.935 198.675 191.098 198.054C191.335 197.077 191.823 196.144 192.459 195.567L201.117 187.605L201.221 187.516C202.272 186.539 203.189 184.586 203.367 183.165C203.604 181.063 203.974 178.917 204.477 176.771C204.788 175.365 204.033 173.796 202.716 173.219L197.58 171.044C196.263 170.466 195.656 168.942 196.248 167.654L202.227 154.26C202.449 153.772 202.805 153.328 203.249 152.958C203.989 152.351 204.98 151.952 205.883 152.011L212.247 152.322C212.839 152.351 213.475 152.218 214.082 151.952C214.97 151.582 215.784 150.975 216.258 150.279C217.693 148.178 219.233 146.135 220.846 144.196C221.778 143.101 222.474 141.074 222.385 139.638L221.793 130.24C221.763 129.737 221.837 129.16 222.03 128.612C222.341 127.591 222.947 126.599 223.673 126.037L233.559 118.267C234.24 117.734 234.965 117.66 235.513 117.986L225.108 111.903ZM210.279 211.803C210.767 210.456 210.219 208.665 209.243 207.629C208.636 206.993 208.059 206.297 207.541 205.528C206.712 204.344 205.217 203.959 204.033 204.728L199.031 208.014L195.39 217.841C194.99 218.922 195.39 219.987 196.278 220.52L196.263 220.535L206.697 226.558C205.794 226.011 205.409 224.93 205.809 223.865L210.279 211.803Z" fill="#B5DA9F"/>
<path d="M201.132 187.531L192.474 195.493C191.838 196.085 191.349 197.018 191.113 197.98L180.723 191.986C180.841 191.497 181.019 191.038 181.241 190.594C181.33 190.387 181.448 190.195 181.581 190.017C181.596 189.988 181.611 189.958 181.641 189.928C181.759 189.751 181.907 189.603 182.055 189.455L190.728 181.492L201.132 187.531Z" fill="#CAE9B8"/>
<path d="M214.082 151.878C213.475 152.144 212.839 152.277 212.247 152.248L205.883 151.937C204.98 151.878 203.989 152.277 203.249 152.884L192.844 146.875C193.125 146.653 193.436 146.461 193.762 146.298C193.939 146.209 194.102 146.135 194.28 146.091C194.295 146.076 194.309 146.076 194.339 146.076C194.502 146.017 194.65 145.987 194.813 145.972C194.99 145.943 195.153 145.913 195.331 145.913H195.493L201.843 146.224C202.035 146.239 202.227 146.224 202.42 146.194C202.553 146.18 202.701 146.165 202.834 146.12C203.115 146.046 203.382 145.943 203.663 145.839L203.693 145.854L214.082 151.878Z" fill="#CAE9B8"/>
<path d="M280.046 127.828C279.557 127.546 278.921 127.606 278.27 128.035L269.508 133.807C268.309 134.591 266.829 134.192 266.001 133.008C265.468 132.253 264.905 131.557 264.284 130.906C263.292 129.87 262.759 128.079 263.263 126.732L264.091 124.498L267.851 122.026C268.531 121.597 269.183 121.552 269.671 121.848V121.834L280.046 127.828Z" fill="#CAE9B8"/>
<path d="M266.755 111.903C266.563 111.799 266.341 111.71 266.104 111.666L259.489 110.171C258.097 109.86 256.425 110.645 255.744 111.903L249.543 123.743C249.247 124.32 248.729 124.868 248.137 125.341L237.733 119.318C238.325 118.829 238.828 118.311 239.124 117.749L245.34 105.909C245.991 104.651 247.678 103.866 249.084 104.177L255.685 105.672C255.951 105.731 256.173 105.835 256.381 105.953V105.938L266.755 111.903Z" fill="#CAE9B8"/>
<path d="M235.542 117.912C234.995 117.586 234.255 117.645 233.589 118.193L223.702 125.963C222.977 126.54 222.37 127.517 222.059 128.538L211.64 122.544C211.67 122.426 211.729 122.278 211.759 122.159C211.981 121.582 212.277 121.049 212.617 120.605C212.706 120.502 212.78 120.398 212.883 120.309C213.002 120.176 213.12 120.043 213.268 119.939L223.169 112.169C223.569 111.844 223.983 111.696 224.383 111.696C224.649 111.696 224.886 111.77 225.108 111.888L235.542 117.912Z" fill="#CAE9B8"/>
<path d="M282.517 138.72L280.875 129.16C280.638 127.739 279.469 127.236 278.27 128.035L269.508 133.792C268.31 134.576 266.815 134.177 265.986 132.993C265.453 132.238 264.891 131.542 264.284 130.906C263.292 129.87 262.759 128.079 263.263 126.732L267.732 114.656C268.235 113.309 267.495 111.962 266.104 111.651L259.503 110.171C258.097 109.86 256.425 110.63 255.759 111.903L249.558 123.728C248.892 125.001 247.205 126.2 245.813 126.555C244.481 126.895 243.135 127.339 241.743 127.902C240.411 128.434 239.035 127.842 238.621 126.481L236.386 119.066C235.971 117.69 234.728 117.305 233.589 118.178L223.702 125.948C222.577 126.836 221.734 128.716 221.823 130.151L222.415 139.564C222.503 141 221.793 143.012 220.876 144.122C219.248 146.061 217.723 148.089 216.287 150.205C215.473 151.389 213.697 152.322 212.262 152.248L205.898 151.937C204.462 151.863 202.834 152.869 202.242 154.186L196.263 167.595C195.686 168.898 196.278 170.422 197.595 170.984L202.731 173.175C204.048 173.737 204.817 175.321 204.492 176.712C204.003 178.873 203.633 181.004 203.397 183.106C203.234 184.526 202.316 186.48 201.251 187.442L192.489 195.508C191.438 196.485 190.772 198.409 191.024 199.83L192.667 209.39C192.903 210.811 194.073 211.314 195.271 210.515L204.033 204.758C205.232 203.974 206.727 204.373 207.556 205.557C208.088 206.312 208.651 207.008 209.257 207.644C210.249 208.68 210.782 210.471 210.279 211.818L205.809 223.894C205.306 225.241 206.046 226.588 207.437 226.899L214.038 228.379C215.444 228.69 217.116 227.92 217.782 226.647L223.983 214.822C224.649 213.549 226.337 212.35 227.728 211.995C229.06 211.655 230.407 211.211 231.798 210.648C233.13 210.116 234.506 210.708 234.921 212.069L237.155 219.484C237.57 220.86 238.813 221.245 239.953 220.372L249.839 212.602C250.964 211.714 251.807 209.834 251.719 208.399L251.127 198.986C251.038 197.55 251.748 195.538 252.666 194.428C254.294 192.489 255.818 190.461 257.254 188.345C258.068 187.161 259.844 186.228 261.279 186.302L267.643 186.613C269.079 186.687 270.707 185.681 271.299 184.364L277.278 170.955C277.855 169.638 277.263 168.128 275.946 167.566L270.811 165.375C269.493 164.813 268.724 163.229 269.049 161.838C269.538 159.677 269.908 157.546 270.145 155.444C270.307 154.024 271.225 152.07 272.291 151.108L281.052 143.042C282.103 142.065 282.769 140.126 282.517 138.72ZM240.278 189.662C229.563 198.098 219.292 195.789 217.353 184.541C215.414 173.293 222.533 157.324 233.248 148.888C243.964 140.452 254.235 142.746 256.173 154.009C258.112 165.272 250.994 181.226 240.278 189.662Z" fill="#85C058"/>
<path d="M64.3653 318.836C64.8981 317.771 64.7501 316.143 64.1433 315.122C62.7669 312.872 61.6273 310.341 60.7245 307.514C60.3841 306.375 59.2593 305.857 58.1789 306.345L54.4641 308.018C54.8341 308.787 55.2337 309.542 55.6777 310.238C56.2993 311.259 56.4325 312.887 55.8997 313.952L45.6877 334.554C45.1549 335.62 45.5693 336.966 46.5905 337.558L54.9821 342.398C54.0201 341.762 53.6353 340.459 54.1533 339.438L64.3653 318.836ZM109.772 175.365C109.609 175.276 109.431 175.232 109.224 175.232C108.958 175.232 108.662 175.306 108.381 175.469L91.1533 185.414C91.0645 185.474 90.9757 185.533 90.9017 185.592C90.8129 185.666 90.7241 185.725 90.6501 185.814C90.5613 185.888 90.4873 185.962 90.4133 186.036C90.2505 186.214 90.1173 186.376 89.9693 186.584C89.4957 187.22 89.1849 187.975 89.1257 188.641L87.3941 207.807C87.2905 208.991 86.4765 210.589 85.6033 211.388C82.2437 214.482 79.0469 217.886 76.0277 221.526C75.2877 222.444 73.7781 222.873 72.6385 222.488L61.5829 218.626C61.3017 218.522 61.0057 218.478 60.7097 218.507H60.6505C60.6061 218.492 60.5617 218.507 60.5173 218.522C60.4581 218.507 60.3989 218.522 60.3545 218.537C60.2361 218.552 60.1325 218.581 60.0289 218.611C59.6885 218.714 59.3629 218.862 59.0669 219.114C58.9929 219.158 58.9337 219.203 58.8745 219.277C58.6969 219.425 58.5785 219.588 58.4601 219.795L45.7913 241.728C45.5249 242.217 45.4509 242.794 45.5249 243.327C45.5841 243.963 45.8653 244.57 46.3537 244.984L55.2189 252.636C56.1217 253.406 56.4917 254.93 56.0773 256.04C54.4345 260.465 53.1025 264.935 52.0961 269.39C51.9481 270.026 51.5929 270.766 51.1193 271.432C51.0305 271.565 50.9269 271.698 50.8233 271.817C50.7197 271.935 50.6309 272.039 50.5421 272.157C50.3201 272.379 50.1129 272.572 49.8909 272.734L34.1585 283.82C34.0549 283.894 33.9513 283.968 33.8773 284.042C33.7737 284.13 33.6849 284.234 33.6109 284.323C32.9153 285.078 32.4121 286.247 32.4121 287.194V307.085C32.4121 307.707 32.6489 308.151 33.0337 308.358L41.5141 313.257C41.1441 313.035 40.8925 312.576 40.8925 311.969V292.078C40.8925 291.382 41.1589 290.554 41.5733 289.873C41.8693 289.384 42.2393 288.97 42.6389 288.689L58.3713 277.618C58.8005 277.322 59.2297 276.849 59.5997 276.331C60.0585 275.665 60.4285 274.91 60.5765 274.274C61.5829 269.834 62.9297 265.364 64.5577 260.924C64.9721 259.799 64.6021 258.29 63.6993 257.52L54.8341 249.868C54.3457 249.454 54.0645 248.832 54.0053 248.211C53.9017 247.648 54.0053 247.086 54.2717 246.612L66.9405 224.679C67.3697 223.939 68.1985 223.465 69.0421 223.406C69.3825 223.376 69.7229 223.406 70.0485 223.524L81.1041 227.387C82.2289 227.772 83.7385 227.343 84.4933 226.425C87.4977 222.784 90.6945 219.38 94.0541 216.287C94.9273 215.488 95.7413 213.89 95.8449 212.706L97.5765 193.54C97.6061 193.17 97.7245 192.785 97.8873 192.4C98.2573 191.542 98.9085 190.742 99.6189 190.328L116.846 180.382C117.335 180.116 117.793 180.072 118.149 180.205L109.772 175.365ZM98.1241 345.965C97.8133 345.743 97.6061 345.358 97.5469 344.84L95.8745 328.116C95.7561 326.932 94.7349 326.236 93.5657 326.503C91.5825 326.932 89.6733 327.198 87.8085 327.287L89.0813 339.971C89.1405 340.533 89.3921 340.948 89.7473 341.125V341.14L98.1241 345.965ZM125.105 226.011C127.576 229.415 128.879 234.639 128.879 241.447C128.879 260.006 115.855 282.562 99.7669 291.856C93.5065 295.482 88.1637 296.681 83.9753 295.704C89.1849 301.772 98.1093 302.601 108.233 296.755C124.32 287.46 137.344 264.905 137.344 246.331C137.344 235.024 132.519 227.816 125.105 226.011ZM141.858 172.553C140.822 171.946 139.461 172.287 138.809 173.264L126.067 192.415C126.007 192.504 125.948 192.578 125.874 192.652C125.785 192.755 125.682 192.874 125.578 192.948C125.534 193.007 125.475 193.051 125.401 193.096C125.341 193.155 125.282 193.199 125.223 193.244C124.498 193.776 123.536 194.087 122.722 194.072C121.893 194.043 121.064 194.058 120.206 194.117L120.605 198.172C120.739 199.356 121.745 200.052 122.914 199.785C125.8 199.149 128.583 198.882 131.217 198.956C132.016 198.971 132.978 198.66 133.703 198.128C134.044 197.891 134.34 197.61 134.532 197.299L147.275 178.133C147.926 177.156 149.258 176.845 150.279 177.422L141.858 172.553ZM166.515 208.118C166.426 208.073 166.323 208.029 166.249 208.014C165.938 207.94 165.568 207.97 165.183 208.147L153.58 213.372C153.861 213.919 154.127 214.467 154.364 215.029C154.586 215.518 154.793 216.021 154.986 216.539C155.045 216.642 155.089 216.746 155.104 216.835C155.326 217.368 155.504 217.9 155.681 218.448C155.726 218.552 155.755 218.655 155.785 218.744C155.889 219.055 156.037 219.321 156.244 219.528C156.318 219.602 156.392 219.676 156.466 219.721C156.51 219.765 156.569 219.795 156.614 219.824C156.762 219.928 156.895 220.002 157.058 220.032C157.117 220.061 157.176 220.076 157.221 220.076C157.457 220.135 157.709 220.135 157.946 220.076V220.061C157.975 220.061 158.005 220.046 158.02 220.046C158.138 220.017 158.242 219.987 158.345 219.928L173.678 213.016C174.093 212.809 174.492 212.794 174.803 212.913C174.892 212.928 174.966 212.957 175.025 213.002L166.515 208.118Z" fill="#B5DA9F"/>
<path d="M150.294 177.422C149.258 176.845 147.926 177.171 147.29 178.133L134.547 197.299C134.34 197.609 134.059 197.891 133.718 198.127L125.253 193.244L125.238 193.229C125.371 193.14 125.489 193.051 125.593 192.962C125.711 192.874 125.815 192.755 125.889 192.666C125.963 192.577 126.022 192.504 126.081 192.43L138.824 173.278C139.49 172.287 140.852 171.961 141.873 172.568L150.294 177.422Z" fill="#CAE9B8"/>
<path d="M59.5996 276.331C59.2296 276.849 58.8004 277.322 58.3712 277.618L42.6388 288.689C42.2392 288.97 41.884 289.384 41.5732 289.873L33.1372 285.004C33.2852 284.767 33.4332 284.53 33.6108 284.323C33.6996 284.219 33.7884 284.115 33.8772 284.041C33.966 283.953 34.0696 283.879 34.1584 283.819L49.8908 272.734C50.1128 272.571 50.32 272.379 50.542 272.157C50.6456 272.039 50.7344 271.935 50.8232 271.817C50.9268 271.683 51.0156 271.565 51.1044 271.432H51.1192L59.5996 276.331Z" fill="#CAE9B8"/>
<path d="M69.0422 223.391C68.1986 223.45 67.3698 223.924 66.9406 224.664L54.2718 246.598C54.0054 247.071 53.9018 247.648 54.0054 248.196L45.5398 243.312C45.4658 242.764 45.5398 242.187 45.8062 241.714L58.475 219.78C58.5934 219.573 58.7118 219.41 58.8894 219.262C58.9486 219.188 59.0078 219.144 59.0818 219.099C59.363 218.862 59.7034 218.7 60.0438 218.596C60.1474 218.566 60.2658 218.537 60.3694 218.522C60.4138 218.507 60.473 218.492 60.5322 218.507C60.5766 218.492 60.621 218.478 60.6654 218.492C60.6802 218.478 60.695 218.478 60.7098 218.478L60.7246 218.492L69.0422 223.391Z" fill="#CAE9B8"/>
<path d="M118.163 180.205C117.808 180.057 117.349 180.101 116.861 180.382L99.6338 190.328C98.9234 190.742 98.2722 191.541 97.9022 192.4L89.4514 187.516C89.5994 187.205 89.7622 186.88 89.9694 186.598C90.1174 186.391 90.2506 186.228 90.4134 186.051C90.5022 185.962 90.5762 185.888 90.6502 185.829C90.739 185.74 90.8278 185.681 90.9018 185.607C90.9906 185.548 91.0794 185.488 91.1534 185.429L108.381 175.483C108.662 175.306 108.958 175.247 109.224 175.247C109.431 175.247 109.609 175.291 109.772 175.38L118.163 180.205Z" fill="#CAE9B8"/>
<path d="M166.515 208.118L174.995 213.016C174.936 212.972 174.862 212.942 174.773 212.928C174.463 212.794 174.063 212.824 173.649 213.031L158.316 219.943C157.546 220.298 156.732 220.12 156.229 219.558C156.022 219.336 155.874 219.084 155.77 218.774C155.741 218.67 155.711 218.566 155.667 218.478C155.489 217.915 155.311 217.382 155.089 216.864C155.075 216.761 155.03 216.657 154.971 216.568C154.779 216.05 154.586 215.547 154.349 215.059C154.113 214.482 153.846 213.934 153.565 213.401L165.168 208.177C165.553 207.999 165.908 207.97 166.234 208.044C166.323 208.044 166.426 208.088 166.515 208.118Z" fill="#CAE9B8"/>
<path d="M175.01 213.016H174.995V213.031H175.01V213.016Z" fill="#CAE9B8"/>
<path d="M175.602 234.195V214.304C175.602 213.12 174.729 212.543 173.648 213.031L158.316 219.943C157.235 220.431 156.125 219.898 155.755 218.759C154.867 215.947 153.713 213.401 152.336 211.152C151.715 210.145 151.582 208.502 152.1 207.437L162.326 186.835C162.859 185.77 162.445 184.423 161.424 183.831L150.338 177.422C149.317 176.83 147.941 177.156 147.29 178.133L134.547 197.284C133.896 198.276 132.401 198.971 131.217 198.942C128.582 198.868 125.815 199.149 122.929 199.785C121.774 200.037 120.753 199.341 120.635 198.172L118.948 181.433C118.829 180.249 117.897 179.776 116.876 180.368L99.6485 190.313C98.6273 190.905 97.6949 192.341 97.5913 193.525L95.8597 212.691C95.7561 213.875 94.9421 215.473 94.0689 216.272C90.7093 219.366 87.5125 222.755 84.4933 226.396C83.7385 227.313 82.2289 227.742 81.1041 227.358L70.0485 223.495C68.9237 223.11 67.5325 223.613 66.9405 224.649L54.2717 246.583C53.6797 247.604 53.9313 249.069 54.8193 249.854L63.6993 257.505C64.6021 258.275 64.9721 259.799 64.5577 260.924C62.9149 265.349 61.5681 269.834 60.5765 274.274C60.3101 275.428 59.3481 276.923 58.3713 277.618L42.6389 288.704C41.6621 289.384 40.8777 290.909 40.8777 292.093V311.984C40.8777 313.168 41.7509 313.745 42.8313 313.257L58.1641 306.345C59.2445 305.857 60.3545 306.389 60.7245 307.529C61.6125 310.341 62.7669 312.887 64.1433 315.136C64.7649 316.143 64.8981 317.786 64.3801 318.851L54.1533 339.453C53.6205 340.518 54.0349 341.865 55.0561 342.457L66.1413 348.866C67.1625 349.458 68.5389 349.132 69.1901 348.155L81.9329 329.004C82.5841 328.012 84.0789 327.317 85.2629 327.346C87.8973 327.42 90.6649 327.139 93.5509 326.503C94.7053 326.251 95.7265 326.947 95.8449 328.131L97.5469 344.84C97.6653 346.024 98.5977 346.498 99.6189 345.906L116.846 335.96C117.867 335.368 118.8 333.932 118.903 332.748L120.635 313.582C120.738 312.398 121.552 310.8 122.426 310.001C125.77 306.908 128.982 303.518 131.986 299.878C132.741 298.96 134.251 298.531 135.376 298.916L146.431 302.778C147.556 303.163 148.947 302.66 149.539 301.624L162.208 279.69C162.8 278.669 162.548 277.204 161.66 276.42L152.78 268.768C151.878 267.998 151.508 266.474 151.922 265.349C153.565 260.924 154.912 256.44 155.903 252C156.17 250.845 157.132 249.35 158.108 248.655L173.841 237.57C174.818 236.889 175.602 235.379 175.602 234.195ZM108.247 296.74C92.1745 306.02 79.1357 298.501 79.1357 279.942C79.1357 261.383 92.1745 238.813 108.247 229.533C124.32 220.254 137.344 227.772 137.344 246.331C137.344 264.89 124.32 287.46 108.247 296.74Z" fill="#85C058"/>
<path d="M135.538 598.186C134.399 598.186 133.259 597.728 132.43 596.928C131.557 596.085 131.069 594.945 131.069 593.717V295.216L535.198 62.1453V360.084C535.198 364.672 531.971 370.266 527.99 372.56L137.744 597.58C137.048 597.979 136.308 598.186 135.538 598.186Z" fill="#FAFAFA"/>
<path d="M534.487 63.3885V360.084C534.487 364.361 531.35 369.793 527.65 371.939L144.611 592.784L137.389 596.958C136.811 597.299 136.19 597.461 135.539 597.461C134.577 597.461 133.629 597.077 132.919 596.396C132.179 595.685 131.779 594.738 131.779 593.702V295.615L534.487 63.3885ZM535.923 60.9021L130.344 294.786V593.702C130.344 596.721 132.83 598.897 135.524 598.897C136.382 598.897 137.255 598.675 138.084 598.201L145.307 594.028L528.36 373.182C532.519 370.785 535.923 364.924 535.923 360.084V60.9021Z" fill="#E0E0E0"/>
<path opacity="0.8" d="M526.303 55.3521L120.694 289.222L130.344 294.786L535.923 60.9021L526.303 55.3521Z" fill="#455A64"/>
<path d="M133.067 598.275C133.067 598.275 130.358 596.943 130.358 593.717V303.415C130.358 301.032 130.358 294.801 130.358 294.801L120.709 289.236L120.694 586.494C120.694 586.864 120.724 587.234 120.768 587.604C121.108 590.061 122.559 592.237 124.72 593.465L132.682 598.068L133.067 598.275Z" fill="#EBEBEB"/>
<path d="M120.694 289.355V269.182C120.694 266.77 122.381 263.84 124.453 262.626L522.544 33.152C524.616 31.9384 527.99 31.9236 530.077 33.1372L532.149 34.336C534.236 35.5348 535.923 38.4652 535.923 40.8776V61.0796L130.344 294.92L120.694 289.355Z" fill="#3D6023"/>
<path opacity="0.3" d="M120.694 289.355V269.182C120.694 266.77 122.381 263.84 124.453 262.626L522.544 33.152C524.616 31.9384 527.99 31.9236 530.077 33.1372L532.149 34.336C534.236 35.5348 535.923 38.4652 535.923 40.8776V61.0796L130.344 294.92L120.694 289.355Z" fill="white"/>
<path d="M130.344 274.747C130.344 272.335 132.031 269.404 134.103 268.191L532.164 38.702C534.236 37.4884 535.923 38.4504 535.923 40.8628V61.0648L130.344 294.92V274.747Z" fill="#3D6023"/>
<path d="M131.439 271.018C130.758 272.202 130.344 273.548 130.344 274.747V294.905L120.709 289.34V269.153C120.709 267.954 121.123 266.622 121.804 265.438L131.439 271.018Z" fill="#3D6023"/>
<path opacity="0.15" d="M131.439 271.018C130.758 272.202 130.344 273.548 130.344 274.747V294.905L120.709 289.34V269.153C120.709 267.954 121.123 266.622 121.804 265.438L131.439 271.018Z" fill="black"/>
<path d="M518.222 60.1472C518.222 62.4116 519.806 63.3144 521.759 62.1896C523.713 61.0648 525.297 58.312 525.297 56.0624C525.297 53.8128 523.713 52.8952 521.759 54.02C519.806 55.1448 518.222 57.8976 518.222 60.1472Z" fill="#FAFAFA"/>
<path d="M504.059 68.3169C504.059 70.5813 505.642 71.4841 507.596 70.3593C509.549 69.2345 511.133 66.4817 511.133 64.2321C511.133 61.9677 509.549 61.0649 507.596 62.1897C505.642 63.3145 504.059 66.0673 504.059 68.3169Z" fill="#FAFAFA"/>
<path d="M489.895 76.5012C489.895 78.7656 491.479 79.6684 493.432 78.5436C495.386 77.4188 496.969 74.666 496.969 72.4164C496.969 70.152 495.386 69.2492 493.432 70.374C491.493 71.4988 489.895 74.2368 489.895 76.5012Z" fill="#FAFAFA"/>
<path d="M274.262 232.627V343.331C274.262 345.374 272.842 347.845 271.066 348.867L162.197 411.87C162.019 411.974 161.856 412.063 161.649 412.122H161.634C160.125 412.714 159 411.855 159 410.035V299.316C159 298.31 159.37 297.185 159.932 296.179C160.524 295.187 161.309 294.299 162.197 293.796L271.08 230.777C272.546 229.934 273.789 230.378 274.159 231.71C274.203 231.858 274.218 231.976 274.233 232.109C274.248 232.272 274.262 232.45 274.262 232.627Z" fill="#EEEEEE"/>
<path d="M517.545 92.294V249.174C517.545 251.216 516.124 253.673 514.363 254.694L311.958 371.555C311.78 371.659 311.603 371.748 311.41 371.807C311.381 371.822 311.366 371.822 311.336 371.836C309.856 372.354 308.746 371.511 308.746 369.72V212.825C308.746 211.819 309.116 210.694 309.694 209.688C310.271 208.696 311.055 207.808 311.943 207.305L514.363 90.4292C515.828 89.5856 517.071 90.0296 517.441 91.3764C517.486 91.5244 517.5 91.6428 517.515 91.776C517.53 91.9536 517.545 92.1164 517.545 92.294Z" fill="#171B1E"/>
<path d="M170.984 550.072C169.756 550.072 168.602 549.776 167.595 549.198C165.168 547.792 163.821 544.892 163.821 541.044C163.821 533.407 169.208 524.083 175.824 520.264C179.169 518.34 182.351 518.044 184.778 519.45C187.205 520.856 188.552 523.742 188.552 527.605C188.552 535.242 183.165 544.566 176.549 548.384C174.61 549.494 172.716 550.072 170.984 550.072ZM181.389 519.983C179.924 519.983 178.266 520.486 176.549 521.478C170.318 525.074 165.257 533.836 165.257 541.029C165.257 544.359 166.337 546.816 168.306 547.94C170.274 549.08 172.938 548.784 175.824 547.126C182.055 543.53 187.116 534.768 187.116 527.576C187.116 524.246 186.036 521.789 184.068 520.664C183.283 520.22 182.38 519.983 181.389 519.983Z" fill="#66A03B"/>
<path d="M172.494 534.043C172.435 533.954 172.405 533.836 172.42 533.688C172.435 533.54 172.479 533.392 172.553 533.244L175.35 528.227C175.424 528.108 175.484 527.99 175.558 527.872C175.632 527.753 175.706 527.679 175.794 527.62L176.801 527.043C176.89 526.984 176.978 526.998 177.052 527.058C177.126 527.117 177.156 527.235 177.156 527.368V540.2C177.156 540.348 177.126 540.496 177.052 540.644C176.978 540.792 176.904 540.896 176.801 540.94L175.75 541.547C175.661 541.606 175.572 541.591 175.498 541.532C175.424 541.473 175.395 541.354 175.395 541.221V531.409L173.56 534.665C173.486 534.798 173.397 534.887 173.308 534.916C173.219 534.946 173.145 534.931 173.071 534.842L172.494 534.043Z" fill="#66A03B"/>
<path d="M205.927 529.899C204.699 529.899 203.545 529.603 202.538 529.026C200.111 527.62 198.764 524.719 198.779 520.871C198.779 513.234 204.166 503.91 210.782 500.092C214.127 498.168 217.309 497.872 219.736 499.278C222.163 500.684 223.51 503.585 223.51 507.433C223.51 515.07 218.123 524.394 211.507 528.212C209.539 529.337 207.644 529.899 205.927 529.899ZM216.317 499.826C214.852 499.826 213.194 500.329 211.477 501.32C205.247 504.917 200.185 513.678 200.185 520.871C200.185 524.201 201.265 526.658 203.234 527.783C205.202 528.922 207.881 528.626 210.752 526.969C216.983 523.372 222.045 514.611 222.045 507.418C222.045 504.088 220.964 501.631 218.996 500.506C218.211 500.048 217.309 499.826 216.317 499.826Z" fill="#E0E0E0"/>
<path d="M211.862 512.938C212.114 512.465 212.291 512.05 212.351 511.68C212.425 511.31 212.454 510.985 212.454 510.704C212.454 510.156 212.351 509.756 212.129 509.505C211.907 509.253 211.551 509.268 211.063 509.564C210.589 509.83 210.249 510.215 210.027 510.704C209.805 511.192 209.657 511.74 209.553 512.346C209.524 512.539 209.479 512.687 209.405 512.82C209.331 512.953 209.257 513.042 209.169 513.086L208.147 513.678C208.059 513.738 207.97 513.738 207.896 513.678C207.822 513.619 207.792 513.516 207.792 513.353C207.822 512.746 207.911 512.124 208.088 511.488C208.266 510.866 208.488 510.26 208.784 509.697C209.08 509.135 209.405 508.632 209.79 508.173C210.175 507.714 210.589 507.359 211.048 507.107C211.596 506.796 212.055 506.663 212.454 506.708C212.854 506.752 213.179 506.915 213.431 507.196C213.697 507.477 213.875 507.847 214.008 508.291C214.127 508.75 214.201 509.224 214.201 509.742C214.201 510.067 214.186 510.393 214.156 510.704C214.127 511.014 214.067 511.355 213.979 511.695C213.875 512.05 213.742 512.435 213.564 512.864C213.387 513.294 213.15 513.782 212.839 514.33L210.456 519.066L214.038 516.994C214.127 516.934 214.215 516.949 214.289 517.008C214.363 517.082 214.393 517.186 214.393 517.319V518.725C214.393 518.873 214.363 519.021 214.289 519.169C214.215 519.317 214.141 519.421 214.038 519.465L208.014 522.943C207.925 523.002 207.837 522.988 207.763 522.928C207.689 522.869 207.659 522.751 207.659 522.618V521.404C207.659 521.182 207.703 520.96 207.792 520.753C207.881 520.531 207.955 520.383 208.014 520.279L211.862 512.938Z" fill="#E0E0E0"/>
<path d="M240.855 509.727C239.627 509.727 238.487 509.431 237.466 508.854C235.039 507.448 233.692 504.547 233.692 500.699C233.692 493.062 239.079 483.738 245.695 479.92C249.04 477.996 252.222 477.7 254.649 479.106C257.076 480.512 258.423 483.412 258.423 487.26C258.423 494.897 253.036 504.221 246.42 508.04C244.467 509.164 242.572 509.727 240.855 509.727ZM251.245 479.653C249.78 479.653 248.122 480.156 246.405 481.148C240.175 484.744 235.113 493.506 235.113 500.699C235.113 504.029 236.193 506.486 238.162 507.61C240.13 508.75 242.794 508.454 245.68 506.796C251.911 503.2 256.973 494.438 256.973 487.246C256.973 483.916 255.892 481.459 253.924 480.334C253.139 479.875 252.237 479.653 251.245 479.653Z" fill="#E0E0E0"/>
<path d="M248.907 485.44C248.995 485.381 249.084 485.396 249.143 485.455C249.217 485.529 249.247 485.632 249.247 485.78V487.186C249.247 487.334 249.217 487.482 249.158 487.645C249.084 487.808 249.025 487.956 248.966 488.074L247.086 492.218C247.471 492.07 247.826 492.011 248.137 492.041C248.448 492.07 248.714 492.189 248.936 492.396C249.158 492.603 249.336 492.914 249.454 493.299C249.573 493.698 249.632 494.172 249.632 494.749C249.632 495.43 249.543 496.096 249.365 496.732C249.188 497.369 248.951 497.961 248.625 498.523C248.315 499.071 247.945 499.574 247.515 500.018C247.086 500.462 246.627 500.832 246.124 501.113C245.517 501.468 244.999 501.646 244.555 501.69C244.111 501.735 243.741 501.661 243.445 501.483C243.149 501.306 242.927 501.054 242.765 500.699C242.602 500.344 242.513 499.974 242.498 499.559C242.483 499.411 242.528 499.263 242.587 499.115C242.661 498.967 242.75 498.878 242.839 498.819L243.86 498.227C243.949 498.183 244.023 498.183 244.067 498.227C244.126 498.286 244.185 498.375 244.245 498.494C244.289 498.627 244.363 498.73 244.452 498.819C244.541 498.908 244.659 498.967 244.792 498.997C244.94 499.026 245.118 499.012 245.325 498.952C245.532 498.893 245.799 498.775 246.109 498.597C246.627 498.301 247.057 497.887 247.382 497.384C247.708 496.866 247.871 496.318 247.871 495.726C247.871 495.134 247.708 494.794 247.382 494.72C247.057 494.646 246.642 494.764 246.109 495.06L245.044 495.682C244.955 495.741 244.866 495.726 244.807 495.667C244.733 495.608 244.703 495.489 244.703 495.356V493.95C244.703 493.802 244.733 493.654 244.792 493.491C244.851 493.328 244.925 493.18 244.985 493.062L246.79 489.096L243.223 491.153C243.135 491.212 243.046 491.197 242.987 491.138C242.913 491.064 242.883 490.96 242.883 490.812V489.406C242.883 489.258 242.913 489.11 242.987 488.962C243.061 488.814 243.135 488.726 243.223 488.666L248.907 485.44Z" fill="#E0E0E0"/>
<path d="M612.172 180.397L577.244 181.404C575.957 180.294 569.119 173.471 569.119 173.471C569.119 173.471 549.021 170.896 548.888 171.621C548.769 172.346 566.662 194.072 568.631 196.233C569.726 197.417 572.819 199.445 575.439 199.608C580.648 199.918 609.198 200.2 609.198 200.2L612.172 180.397Z" fill="#B16668"/>
<path d="M613.904 180.397C611.107 179.628 577.881 180.93 577.881 180.93L569.356 172.879C569.356 172.879 564.516 171.991 557.235 171.325C549.953 170.644 547.57 171.325 547.57 171.325C547.57 171.325 563.747 191.527 566.248 194.857C568.749 198.187 570.318 200.2 575.883 200.422C582.927 200.703 610.559 200.866 610.559 200.866L613.904 180.397Z" fill="#171B1E"/>
<path d="M367.75 424.434L366.64 423.798C364.879 422.777 363.444 420.305 363.444 418.263V261.398C363.444 259.355 364.879 256.884 366.64 255.862L569.06 139.016C570.821 137.995 573.678 137.995 575.439 139.016L576.534 139.653C578.295 140.674 579.731 143.146 579.731 145.188V302.068C579.731 304.11 578.295 306.582 576.534 307.603L374.144 424.434C372.383 425.456 369.512 425.456 367.75 424.434Z" fill="#B5DA9F"/>
<path opacity="0.4" d="M579.701 144.67C579.479 143.012 578.147 142.406 576.534 143.338L374.114 260.199C373.226 260.702 372.442 261.59 371.85 262.567L364.376 258.26C364.938 257.254 365.752 256.38 366.64 255.862L569.06 139.016C570.836 137.995 573.692 137.995 575.454 139.016L576.564 139.653C578.147 140.585 579.509 142.746 579.701 144.67Z" fill="white"/>
<path opacity="0.1" d="M373.596 424.686C371.835 425.441 369.349 425.352 367.765 424.434L366.64 423.798C364.879 422.777 363.458 420.305 363.458 418.263V261.398C363.458 260.376 363.814 259.237 364.391 258.26L371.865 262.567C371.302 263.573 370.933 264.713 370.933 265.704V422.584C370.933 424.42 372.087 425.263 373.596 424.686Z" fill="black"/>
<path d="M391.593 389.788L560.417 292.315" stroke="#171B1E" stroke-width="0.9683" stroke-miterlimit="10" stroke-linecap="round" stroke-linejoin="round"/>
<path d="M383.793 377.474L390.661 373.508C391.179 373.212 391.593 373.448 391.593 374.04V375.254C391.593 375.846 391.179 376.571 390.661 376.867L383.793 380.834C383.275 381.13 382.861 380.893 382.861 380.301V379.087C382.861 378.495 383.275 377.77 383.793 377.474Z" fill="#171B1E"/>
<path d="M383.793 360.676L390.661 356.71C391.179 356.414 391.593 356.65 391.593 357.242V358.456C391.593 359.048 391.179 359.773 390.661 360.069L383.793 364.036C383.275 364.332 382.861 364.095 382.861 363.503V362.289C382.861 361.697 383.275 360.972 383.793 360.676Z" fill="#171B1E"/>
<path d="M383.793 343.878L390.661 339.912C391.179 339.616 391.593 339.852 391.593 340.444V341.658C391.593 342.25 391.179 342.975 390.661 343.271L383.793 347.238C383.275 347.534 382.861 347.297 382.861 346.705V345.491C382.861 344.884 383.275 344.174 383.793 343.878Z" fill="#171B1E"/>
<path d="M383.793 327.065L390.661 323.099C391.179 322.803 391.593 323.04 391.593 323.632V324.845C391.593 325.437 391.179 326.162 390.661 326.458L383.793 330.425C383.275 330.721 382.861 330.484 382.861 329.892V328.678C382.861 328.086 383.275 327.376 383.793 327.065Z" fill="#171B1E"/>
<path d="M383.793 310.267L390.661 306.301C391.179 306.005 391.593 306.242 391.593 306.834V308.047C391.593 308.639 391.179 309.364 390.661 309.66L383.793 313.627C383.275 313.923 382.861 313.686 382.861 313.094V311.88C382.861 311.288 383.275 310.563 383.793 310.267Z" fill="#171B1E"/>
<path d="M383.793 293.454L390.661 289.488C391.179 289.192 391.593 289.429 391.593 290.021V291.234C391.593 291.826 391.179 292.552 390.661 292.848L383.793 296.814C383.275 297.11 382.861 296.873 382.861 296.281V295.068C382.861 294.476 383.275 293.75 383.793 293.454Z" fill="#171B1E"/>
<path d="M383.793 276.656L390.661 272.69C391.179 272.394 391.593 272.631 391.593 273.223V274.436C391.593 275.028 391.179 275.754 390.661 276.05L383.793 280.016C383.275 280.312 382.861 280.075 382.861 279.483V278.27C382.861 277.678 383.275 276.952 383.793 276.656Z" fill="#171B1E"/>
<path d="M439.367 239.005L512.627 196.781C513.293 196.396 513.841 196.707 513.841 197.476V199.045C513.841 199.815 513.293 200.762 512.627 201.147L439.367 243.371C438.701 243.756 438.154 243.445 438.154 242.676V241.107C438.169 240.322 438.701 239.39 439.367 239.005Z" fill="#171B1E"/>
<path d="M404.158 389.24L411.025 385.274C411.543 384.978 411.958 385.214 411.958 385.806V387.02C411.958 387.612 411.543 388.337 411.025 388.633L404.158 392.6C403.64 392.896 403.226 392.659 403.226 392.067V390.853C403.226 390.261 403.655 389.536 404.158 389.24Z" fill="#171B1E"/>
<path d="M424.552 377.474L431.42 373.508C431.938 373.212 432.352 373.448 432.352 374.04V375.254C432.352 375.846 431.938 376.571 431.42 376.867L424.552 380.834C424.034 381.13 423.62 380.893 423.62 380.301V379.087C423.62 378.495 424.034 377.785 424.552 377.474Z" fill="#171B1E"/>
<path d="M444.932 365.708L451.799 361.742C452.317 361.446 452.732 361.682 452.732 362.274V363.488C452.732 364.08 452.317 364.805 451.799 365.101L444.932 369.068C444.414 369.364 444 369.127 444 368.535V367.321C444 366.729 444.414 366.004 444.932 365.708Z" fill="#171B1E"/>
<path d="M465.312 353.927L472.179 349.961C472.697 349.665 473.111 349.901 473.111 350.493V351.707C473.111 352.299 472.697 353.024 472.179 353.32L465.312 357.287C464.794 357.583 464.379 357.346 464.379 356.754V355.54C464.379 354.948 464.794 354.238 465.312 353.927Z" fill="#171B1E"/>
<path d="M485.691 342.176L492.559 338.209C493.077 337.913 493.491 338.15 493.491 338.742V339.956C493.491 340.548 493.077 341.273 492.559 341.569L485.691 345.535C485.173 345.831 484.759 345.595 484.759 345.003V343.789C484.759 343.182 485.173 342.472 485.691 342.176Z" fill="#171B1E"/>
<path d="M506.071 330.41L512.938 326.443C513.456 326.147 513.871 326.384 513.871 326.976V328.19C513.871 328.782 513.456 329.507 512.938 329.803L506.071 333.769C505.553 334.065 505.139 333.829 505.139 333.237V332.023C505.139 331.431 505.568 330.706 506.071 330.41Z" fill="#171B1E"/>
<path d="M526.465 318.644L533.333 314.677C533.851 314.381 534.265 314.618 534.265 315.21V316.424C534.265 317.016 533.851 317.741 533.333 318.037L526.465 322.003C525.947 322.299 525.533 322.063 525.533 321.471V320.257C525.533 319.65 525.947 318.94 526.465 318.644Z" fill="#171B1E"/>
<path d="M546.845 306.863L553.712 302.897C554.23 302.601 554.645 302.838 554.645 303.43V304.643C554.645 305.235 554.23 305.96 553.712 306.256L546.845 310.223C546.327 310.519 545.913 310.282 545.913 309.69V308.476C545.913 307.884 546.327 307.159 546.845 306.863Z" fill="#171B1E"/>
<path d="M407.592 373.818V371.672" stroke="#FAFAFA" stroke-width="0.7263" stroke-linecap="round" stroke-linejoin="round"/>
<path d="M407.592 367.188V324.549" stroke="#FAFAFA" stroke-width="0.7263" stroke-linecap="round" stroke-linejoin="round" stroke-dasharray="3.03 3.03"/>
<path d="M407.592 322.3V320.154" stroke="#FAFAFA" stroke-width="0.7263" stroke-linecap="round" stroke-linejoin="round"/>
<path d="M427.971 362.112V359.966" stroke="#FAFAFA" stroke-width="0.7263" stroke-linecap="round" stroke-linejoin="round"/>
<path d="M427.971 355.762V273.874" stroke="#FAFAFA" stroke-width="0.7263" stroke-linecap="round" stroke-linejoin="round" stroke-dasharray="2.84 2.84"/>
<path d="M427.971 271.772V269.626" stroke="#FAFAFA" stroke-width="0.7263" stroke-linecap="round" stroke-linejoin="round"/>
<path d="M448.366 350.405V348.259" stroke="#FAFAFA" stroke-width="0.7263" stroke-linecap="round" stroke-linejoin="round"/>
<path d="M448.366 344.233V314.115" stroke="#FAFAFA" stroke-width="0.7263" stroke-linecap="round" stroke-linejoin="round" stroke-dasharray="2.71 2.71"/>
<path d="M448.366 312.102V309.956" stroke="#FAFAFA" stroke-width="0.7263" stroke-linecap="round" stroke-linejoin="round"/>
<path d="M468.745 338.698V336.537" stroke="#FAFAFA" stroke-width="0.7263" stroke-linecap="round" stroke-linejoin="round"/>
<path d="M468.745 332.156V316.824" stroke="#FAFAFA" stroke-width="0.7263" stroke-linecap="round" stroke-linejoin="round" stroke-dasharray="2.96 2.96"/>
<path d="M468.745 314.633V312.472" stroke="#FAFAFA" stroke-width="0.7263" stroke-linecap="round" stroke-linejoin="round"/>
<path d="M489.125 326.991V324.83" stroke="#FAFAFA" stroke-width="0.7263" stroke-linecap="round" stroke-linejoin="round"/>
<path d="M489.125 320.627V255.404" stroke="#FAFAFA" stroke-width="0.7263" stroke-linecap="round" stroke-linejoin="round" stroke-dasharray="2.84 2.84"/>
<path d="M489.125 253.302V251.156" stroke="#FAFAFA" stroke-width="0.7263" stroke-linecap="round" stroke-linejoin="round"/>
<path d="M509.505 315.27V313.124" stroke="#FAFAFA" stroke-width="0.7263" stroke-linecap="round" stroke-linejoin="round"/>
<path d="M509.505 308.639V266" stroke="#FAFAFA" stroke-width="0.7263" stroke-linecap="round" stroke-linejoin="round" stroke-dasharray="3.03 3.03"/>
<path d="M509.505 263.766V261.605" stroke="#FAFAFA" stroke-width="0.7263" stroke-linecap="round" stroke-linejoin="round"/>
<path d="M529.884 303.563V301.417" stroke="#FAFAFA" stroke-width="0.7263" stroke-linecap="round" stroke-linejoin="round"/>
<path d="M529.884 296.829V280.771" stroke="#FAFAFA" stroke-width="0.7263" stroke-linecap="round" stroke-linejoin="round" stroke-dasharray="3.1 3.1"/>
<path d="M529.884 278.477V276.331" stroke="#FAFAFA" stroke-width="0.7263" stroke-linecap="round" stroke-linejoin="round"/>
<path d="M550.279 291.856V289.71" stroke="#FAFAFA" stroke-width="0.7263" stroke-linecap="round" stroke-linejoin="round"/>
<path d="M550.279 285.226V242.587" stroke="#FAFAFA" stroke-width="0.7263" stroke-linecap="round" stroke-linejoin="round" stroke-dasharray="3.03 3.03"/>
<path d="M550.279 240.337V238.191" stroke="#FAFAFA" stroke-width="0.7263" stroke-linecap="round" stroke-linejoin="round"/>
<path opacity="0.6" d="M412.357 317.356C414.992 315.802 417.123 309.734 417.123 303.8V284.959C417.123 279.054 421.311 271.787 426.432 268.842L428.859 267.436C433.98 264.476 438.169 266.903 438.169 272.808V305.087C438.169 310.992 442.357 313.42 447.478 310.46L451.962 307.87C454.567 306.36 457.823 308.24 457.823 311.259C457.823 314.248 461.035 316.128 463.639 314.678L468.272 312.088C473.363 309.039 477.492 301.757 477.492 295.822V263.144C477.492 257.239 481.71 250.031 486.875 247.16L489.169 245.872C494.335 242.986 498.553 245.473 498.553 251.378V256.765C498.553 262.67 502.741 265.098 507.862 262.138L510.333 260.717C515.454 257.757 519.643 260.184 519.643 266.089V271.476C519.643 277.382 523.831 279.809 528.952 276.849L530.091 276.183C535.212 273.223 539.401 265.971 539.401 260.066V254.678C539.401 248.744 541.828 242.528 544.817 240.796L550.234 237.658V291.442L407.562 373.818V320.154C407.592 320.154 409.723 318.896 412.357 317.356Z" fill="#EAFBDF"/>
<path d="M407.592 320.154C407.592 320.154 409.723 318.896 412.357 317.356C414.992 315.817 417.123 309.734 417.123 303.8V284.959C417.123 279.054 421.311 271.787 426.432 268.842L428.859 267.436C433.98 264.476 438.169 266.903 438.169 272.808V305.087C438.169 310.992 442.357 313.42 447.478 310.46L451.962 307.87C454.567 306.36 457.823 308.24 457.823 311.259C457.823 314.248 461.035 316.128 463.639 314.678L468.272 312.088C473.363 309.039 477.492 301.757 477.492 295.822V263.144C477.492 257.239 481.71 250.031 486.875 247.16L489.169 245.872C494.335 242.986 498.553 245.473 498.553 251.378V256.765C498.553 262.67 502.741 265.098 507.862 262.138L510.333 260.717C515.454 257.757 519.643 260.184 519.643 266.089V271.476C519.643 277.382 523.831 279.809 528.952 276.849L530.091 276.183C535.212 273.223 539.401 265.971 539.401 260.066V254.678C539.401 248.744 541.828 242.528 544.817 240.796L550.234 237.658" stroke="#FAFAFA" stroke-width="0.9683" stroke-miterlimit="10" stroke-linecap="round" stroke-linejoin="round"/>
<path d="M427.972 263.751C429.585 262.818 430.887 263.573 430.887 265.438C430.887 267.288 429.585 269.552 427.972 270.485C426.358 271.417 425.056 270.662 425.056 268.798C425.056 266.933 426.373 264.668 427.972 263.751Z" fill="#FAFAFA"/>
<path d="M509.505 257.12C511.118 256.188 512.42 256.943 512.42 258.808C512.42 260.672 511.118 262.922 509.505 263.854C507.892 264.787 506.589 264.032 506.589 262.167C506.604 260.302 507.906 258.038 509.505 257.12Z" fill="#171B1E"/>
<path d="M448.958 305.516C450.571 304.584 451.873 305.339 451.873 307.204C451.873 309.054 450.571 311.318 448.958 312.25C447.345 313.183 446.042 312.428 446.042 310.563C446.042 308.698 447.345 306.449 448.958 305.516Z" fill="#171B1E"/>
<path d="M542.257 153.52C543.619 153.713 547.481 154.793 548.754 155.252C552.025 156.421 553.165 158.212 554.112 161.29C554.571 162.756 554.556 164.546 554.349 166.056C554.289 166.485 554.082 167.048 553.697 167.492C553.165 168.113 552.543 168.616 551.818 169.016C548.843 170.629 546.534 171.665 543.841 169.564C542.168 168.261 540.614 166.781 538.838 165.597C537.521 164.724 535.982 164.265 534.369 163.777C532.548 163.229 530.698 163.111 528.804 163.022C527.561 162.963 525.77 163.954 524.719 164.561C524.053 162.844 524.201 161.276 525.533 160.047C528.034 157.768 531.956 154.423 534.916 153.506C537.536 152.721 539.564 153.15 542.257 153.52Z" fill="#B16668"/>
<path d="M660.687 446.546C656.957 448.692 652.769 448.647 648.196 446.916L645.162 422.422L660.006 423.931L660.687 446.546Z" fill="#B16668"/>
<path d="M614.925 433.211C611.936 440.226 606.105 438.48 599.459 434.247L599.874 409.531L615.577 409.057L614.925 433.211Z" fill="#B16668"/>
<path d="M633.721 470.61C633.322 471.01 633.514 473.689 634.002 474.399C634.52 475.154 637.421 477.492 642.557 477.699C647.456 477.907 651.807 477.107 654.634 475.198C657.446 473.289 658.778 471.232 658.97 468.435C659.162 465.638 658.763 462.959 660.036 460.768C661.205 458.755 663.099 456.462 663.484 455.366C664.342 452.998 663.351 449.683 663.351 449.683L633.721 470.61Z" fill="#37474F"/>
<path d="M646.42 445.88C646.36 446.916 646.227 447.952 645.916 449.002C645.265 451.178 644.259 453.25 643.104 455.218C642.512 456.24 641.876 457.231 641.151 458.164C639.73 459.969 637.924 461.464 636.415 463.21C634.905 464.942 633.632 467.029 633.573 469.308C633.484 473.156 637.688 474.325 640.899 474.814C644.348 475.317 647.988 475.036 651.304 473.985C654.989 472.816 657.594 469.856 658.097 466.126C658.245 465.06 658.141 463.965 658.245 462.885C658.452 460.428 659.666 458.164 661.027 456.077C661.826 454.878 662.685 453.694 663.203 452.362C664.135 449.95 663.247 447.315 662.537 444.962C661.93 442.934 661.234 440.64 660.509 440.862C660.524 441.277 660.568 441.721 660.376 442.091C660.154 442.55 659.976 442.801 659.843 443.319C659.71 443.867 659.547 444.4 659.31 444.918C658.955 445.702 658.408 446.427 657.668 446.842C657.579 445.391 657.49 443.941 657.401 442.505C657.372 442.061 657.327 441.573 657.031 441.232C656.72 440.892 656.232 440.803 655.788 440.729C653.065 440.3 650.282 439.886 647.559 440.3C647.145 440.359 646.701 440.463 646.464 440.818C646.272 441.099 646.286 441.469 646.316 441.81C646.39 443.186 646.479 444.533 646.42 445.88Z" fill="#455A64"/>
<path d="M642.601 456.047C643.992 454.937 647.204 454.819 648.95 454.967C651.156 455.129 652.946 455.855 653.982 456.565C654.441 456.876 655.063 456.802 655.448 456.402C655.906 455.914 655.847 455.159 655.285 454.774C654.19 454.019 652.221 452.969 649.616 452.865C645.295 452.687 644.052 453.472 644.052 453.472C644.052 453.472 642.142 454.774 642.601 456.047Z" fill="#F5F5F5"/>
<path d="M639.434 460.073C641.195 458.963 644.732 459.007 646.479 459.14C648.684 459.303 650.342 460.117 651.378 460.842C651.836 461.153 652.458 461.079 652.843 460.68C653.302 460.206 653.243 459.436 652.68 459.052C651.585 458.297 649.498 457.083 646.893 456.98C642.572 456.802 641.476 457.72 641.476 457.72C641.476 457.72 639.686 458.474 639.434 460.073Z" fill="#F5F5F5"/>
<path d="M651.23 448.677C648.24 448.455 646.997 448.825 645.828 449.298C645.088 449.742 644.614 450.956 645.117 451.252C646.065 450.689 647.781 450.423 649.898 450.453C651.319 450.467 653.124 451 654.589 451.592C654.959 451.74 655.403 451.962 655.788 452.155C656.306 452.421 656.957 452.199 657.194 451.666C657.387 451.222 657.224 450.689 656.78 450.453C655.729 449.861 653.642 448.854 651.23 448.677Z" fill="#F5F5F5"/>
<path d="M574.196 450.231C573.826 451.089 573.989 452.658 574.492 453.635C574.995 454.626 580.308 457.409 587.338 456.728C594.368 456.047 599.119 453.058 601.753 451.208C604.388 449.358 607.17 448.928 610.648 448.632C614.126 448.322 618.655 446.457 619.365 444.799C620.076 443.142 619.114 440.359 619.114 440.359L574.196 450.231Z" fill="#37474F"/>
<path d="M601.857 427.735C601.235 427.528 600.629 427.32 600.007 427.113C599.667 426.995 599.297 426.891 598.956 427.024C598.512 427.202 598.349 427.75 598.246 428.208C598.024 429.17 597.965 430.399 597.565 431.287C597.21 432.086 596.292 432.841 595.656 433.418C593.983 434.913 592.059 436.097 590.135 437.222C587.871 438.524 585.651 439.56 583.298 440.685C580.915 441.854 577.718 442.609 575.853 443.941C573.145 445.88 572.923 450.571 576.135 452.332C578.902 453.842 586.095 455.366 593.525 453.013C597.58 451.74 601.975 447.241 607.318 446.664C610.722 446.294 617.131 445.14 619.247 442.49C620.017 441.321 618.833 437.71 617.856 434.602C616.79 431.198 616.257 425.855 615.133 426.181C615.088 427.32 614.126 428.016 613.549 428.993C613.046 429.851 612.779 430.828 612.409 431.746C612.039 432.678 611.536 433.596 610.707 434.143C609.879 434.691 608.665 434.765 607.94 434.069C606.904 433.063 607.451 431.228 606.682 429.999C606.164 429.17 605.157 428.8 604.225 428.49C603.426 428.253 602.641 427.986 601.857 427.735Z" fill="#455A64"/>
<path d="M593.258 435.283C593.258 435.283 593.702 433.965 595.73 433.521C597.269 433.181 600.051 434.247 601.783 435.593C602.493 436.141 602.434 437.236 601.665 437.695C601.206 437.976 600.629 437.917 600.214 437.577C599.06 436.659 596.5 434.957 593.258 435.283Z" fill="#F5F5F5"/>
<path d="M588.537 438.124C588.537 438.124 589.499 436.526 591.467 436.496C591.467 436.496 595.522 436.496 598.098 438.761C598.749 439.338 598.734 440.359 597.994 440.803C597.55 441.07 596.988 441.01 596.588 440.685C595.419 439.693 593.095 437.636 588.537 438.124Z" fill="#F5F5F5"/>
<path d="M583.298 440.699C583.298 440.699 584.378 439.249 586.347 439.219C586.347 439.219 590.121 439.249 592.696 441.514C593.347 442.091 593.332 443.112 592.592 443.556C592.148 443.822 591.586 443.763 591.186 443.437C590.032 442.446 587.856 440.226 583.298 440.699Z" fill="#F5F5F5"/>
<path d="M654.915 263.026C656.602 289.873 659.325 353.409 659.325 353.409C659.71 356.739 660.939 364.761 661.545 376.793C662.433 394.242 661.042 432.782 661.042 432.782C661.042 432.782 653.879 436.911 646.139 433.966C646.139 433.966 636.208 379.013 633.026 361.875C630.229 346.808 624.797 314.145 624.797 314.145L622.251 355.141C622.251 355.141 623.125 365.634 621.659 377.311C620.668 385.274 615.873 419.832 615.873 419.832C615.873 419.832 607.422 422.525 599.03 419.965C599.03 419.965 597.491 363.562 597.136 356.221C596.721 347.859 594.975 257.609 594.975 257.609L654.915 263.026Z" fill="#37474F"/>
<path d="M624.812 314.16L620.179 292.256C620.179 292.256 609.138 291.619 602.863 285.655C602.863 285.655 604.121 291.649 618.092 294.846L622.725 317.016L623.184 337.632L624.812 314.16Z" fill="#37474F"/>
<path d="M649.839 183.12C655.122 184.053 655.463 186.672 656.617 191.911C657.194 194.516 658.467 200.096 657.964 204.773L654.042 235.719L655.389 271.358C646.893 280.593 612.927 283.568 594.383 270.011C594.383 270.011 594.59 211.462 595.434 202.064C596.929 185.651 604.373 179.82 615.295 179.849L633.988 181.433L649.839 183.12Z" fill="#171B1E"/>
<path d="M630.095 141.621C630.066 150.782 622.607 158.182 613.445 158.153C604.284 158.123 596.884 150.664 596.914 141.503C596.944 132.342 604.403 124.942 613.564 124.971C622.725 125.016 630.125 132.46 630.095 141.621Z" fill="#37474F"/>
<path d="M635.29 144.862L638.827 135.361C638.827 135.361 641.728 134.872 643.978 137.196C646.183 139.46 644.925 146.55 642.143 153.476C642.143 153.476 639.405 166.1 638.324 168.172C637.244 170.244 635.009 170.822 635.009 170.822L635.29 144.862Z" fill="#37474F"/>
<path d="M635.557 154.024C636.563 154.63 638.028 152.692 639.286 151.389C640.544 150.087 644.629 148.311 646.657 152.618C648.714 156.998 644.822 162.77 641.595 163.777C636.045 165.494 635.231 161.942 635.231 161.942L634.743 181.936C634.743 181.936 631.087 190.802 621.245 192.104C611.403 193.406 613.46 185.311 616.702 181.344L616.731 175.262C616.731 175.262 611.699 176.002 609.257 175.617C605.187 174.966 602.627 171.739 601.398 167.329C599.43 160.225 598.705 154.512 600.436 140.57C602.331 125.297 620.12 125.193 629.696 131.276C639.286 137.329 635.557 154.024 635.557 154.024Z" fill="#B16668"/>
<path d="M635.453 155.37C637.051 154.912 638.221 152.336 639.286 151.389C641.048 149.806 638.828 135.361 638.828 135.361C638.828 135.361 640.529 131.779 637.17 128.064C634.787 125.415 630.776 125.104 623.939 124.009C620.564 123.462 616.583 123.195 613.238 122.574C609.154 121.819 606.549 121.02 603.293 119.392C602.701 119.096 602.05 118.77 601.398 118.903C600.866 119.007 600.436 119.421 600.2 119.91C599.963 120.398 599.904 120.946 599.918 121.478C599.933 122.041 600.037 122.603 600.2 123.151C600.303 123.476 600.954 124.438 600.821 124.72C600.481 125.415 597.846 124.246 597.313 124.083C597.18 124.039 597.047 124.009 596.929 124.068C596.825 124.113 596.766 124.216 596.721 124.32C595.878 125.963 596.189 128.272 597.018 129.87C598.956 133.54 602.656 136.308 606.445 137.877C610.471 139.549 614.94 140.171 619.277 139.668C621.141 139.446 622.977 139.031 624.753 138.395C624.664 138.424 625.833 140.141 625.952 140.274C626.47 140.866 627.062 141.399 627.728 141.828C628.379 142.258 629.104 142.628 629.859 142.82C630.643 143.027 631.383 142.924 631.827 143.767C632.108 144.3 632.123 144.936 632.138 145.528C632.197 147.29 632.242 149.066 632.301 150.827C632.33 151.73 632.36 152.632 632.656 153.491C632.952 154.334 633.588 155.119 634.447 155.37C634.802 155.474 635.142 155.459 635.453 155.37Z" fill="#37474F"/>
<path d="M616.731 175.247C616.731 175.247 625.848 173.441 629.03 171.769C631.161 170.644 632.922 168.69 633.44 167.432C633.44 167.432 632.833 170.126 630.924 172.553C628.586 175.528 616.716 177.674 616.716 177.674L616.731 175.247Z" fill="#9A4A4D"/>
<path d="M618.078 151.271C618.078 152.322 618.892 153.165 619.898 153.165C620.905 153.165 621.719 152.322 621.733 151.271C621.733 150.22 620.919 149.376 619.913 149.376C618.907 149.376 618.093 150.22 618.078 151.271Z" fill="#37474F"/>
<path d="M620.268 145.647L624.308 148.266C625.019 147.097 624.678 145.573 623.568 144.848C622.444 144.122 620.964 144.478 620.268 145.647Z" fill="#37474F"/>
<path d="M621.127 162.356L614.703 165.094C615.532 166.885 617.427 167.773 619.41 166.959C621.201 166.248 621.955 164.147 621.127 162.356Z" fill="#9A4A4D"/>
<path d="M601.354 147.63L605.202 145.306C604.595 144.211 603.233 143.841 602.183 144.492C601.117 145.129 600.747 146.535 601.354 147.63Z" fill="#37474F"/>
<path d="M602.863 150.693C602.863 151.744 603.677 152.588 604.684 152.588C605.69 152.588 606.504 151.744 606.519 150.693C606.519 149.643 605.705 148.799 604.698 148.799C603.692 148.799 602.863 149.643 602.863 150.693Z" fill="#37474F"/>
<path d="M613.031 149.717L611.477 161.364L605.527 158.804L613.031 149.717Z" fill="#9A4A4D"/>
<path d="M650.49 183.254L628.438 230.895C628.438 230.895 597.521 229.918 587.368 228.068C583.905 227.432 584.511 225.522 583.12 221.808C581.714 218.093 579.716 218.803 579.716 218.803L579.746 223.85C579.864 227.18 574.566 228.882 572.213 229.8C568.335 231.309 564.102 232.271 560.106 233.514C558.759 233.929 557.279 234.447 556.554 235.66C555.903 236.756 556.051 238.206 556.673 239.331C558.478 242.602 560.935 245.354 564.561 245.784C569.031 246.316 573.989 245.088 578.325 244.318C583.461 243.401 587.057 242.202 592.148 242.883C597.032 243.534 604.151 244.333 608.991 245.221C614.57 246.228 626.558 248.152 631.413 248.359C634.92 248.507 637.333 249.942 641.269 243.549C644.007 239.094 650.209 227.461 655.477 217.19C660.894 206.608 662.7 199.963 662.419 193.273C662.241 189.84 659.37 183.964 650.49 183.254Z" fill="#B16668"/>
<path d="M648.906 183.017C653.45 183.268 657.416 183.934 660.11 186.199C662.803 188.463 665.171 192.282 661.353 205.676C657.52 219.07 642.143 243.934 639.863 247.012C637.599 250.09 634.254 249.276 627.727 248.581C621.215 247.885 607.451 244.955 607.451 244.955C607.451 244.955 609.568 234.654 608.65 230.007L627.92 230.421L640.056 200.348C640.041 200.348 644.022 188.478 648.906 183.017Z" fill="#455A64"/>
<path d="M290.287 642.912L289.636 625.714L303.474 617.411C303.474 617.411 302.024 635.497 302.349 637.983C302.66 640.47 305.857 642.009 306.434 643.681C307.026 645.354 298.501 663.025 293.499 667.036C288.497 671.032 280.031 666.385 279.158 664.564C278.285 662.744 283.257 662.714 285.729 661.16C286.602 660.598 287.609 659.843 287.609 659.843C289 654.87 290.287 642.912 290.287 642.912Z" fill="#FFA8A7"/>
<path d="M304.17 640.573C302.557 642.009 301.402 645.531 299.286 650.356C297.169 655.181 295.808 660.391 290.169 663.351C286.351 665.349 280.771 663.883 283.553 662.655C285.714 661.708 287.609 659.843 287.609 659.843C287.609 659.843 285.063 661.693 281.052 662.241C277.915 662.67 271.432 664.594 275.635 669.345C277.249 671.18 280.697 672.216 287.475 672.26C293.913 672.305 296.888 670.292 299.167 665.615C301.935 659.932 307.988 653.967 309.986 650.771C312.399 646.908 308.136 641.461 304.17 640.573Z" fill="#37474F"/>
<path d="M388.189 597.195L377.77 586.154L385.747 576.179L394.879 585.384C397.336 587.249 399.585 586.568 401.11 587.486C402.634 588.404 407.37 607.436 406.068 613.712C404.78 619.987 395.293 621.822 393.458 620.978C391.623 620.135 395.427 616.938 396.329 614.17C396.655 613.179 396.936 611.965 396.936 611.965C394.849 607.214 388.189 597.195 388.189 597.195Z" fill="#FFA8A7"/>
<path d="M397.38 586.524C397.055 588.655 398.416 592.103 399.881 597.165C401.347 602.227 403.611 607.111 401.169 612.986C399.511 616.967 394.272 619.395 395.634 616.671C396.685 614.555 396.966 611.921 396.966 611.921C396.966 611.921 396.181 614.969 393.443 617.944C391.297 620.268 387.375 626.262 393.725 626.38C396.714 626.439 401.391 625.818 405.328 622.606C408.954 619.646 410.789 614.022 409.546 608.975C408.051 602.833 408.895 594.383 408.391 590.653C407.77 586.139 400.991 584.674 397.38 586.524Z" fill="#37474F"/>
<path d="M287.49 465.638C287.49 465.638 315.817 533.126 318.881 540.674C321.945 548.222 324.475 551.241 328.989 554.364C333.518 557.486 381.751 590.505 381.751 590.505C390.75 586.776 390.927 580.915 390.927 580.915C390.927 580.915 367.144 550.723 360.824 545.158C354.49 539.578 344.367 536.337 344.367 536.337L337.603 487.364C335.62 477.729 336.848 467.103 322.522 450.704L287.49 465.638Z" fill="#37474F"/>
<path d="M322.522 450.689L273.978 456.284C273.978 456.284 274.422 495.06 276.79 526.347C279.409 560.935 289.37 630.598 289.37 630.598C296.148 631.945 303.045 629.118 303.045 629.118C303.045 629.118 309.32 578.621 309.32 571.398C309.32 560.269 305.768 550.19 305.768 550.19C306.73 535.035 312.325 514.522 313.168 496.969C325.941 491.7 330.617 484.596 332.423 475.065C334.155 465.859 325.955 456.284 322.522 450.689Z" fill="#37474F"/>
<path d="M310.282 520.013L314.456 494.024C314.456 494.024 327.598 489.332 332.645 482.51C332.645 482.51 331.047 492.426 318.644 497.147C317.845 498.153 311.585 523.136 311.585 523.136L310.282 520.013Z" fill="#263238"/>
<path d="M303.962 320.361C298.472 315.995 295.586 313.301 291.19 309.29C288.704 307.026 286.513 309.705 286.765 309.631L295.526 333.015C296.829 334.095 297.82 334.199 299.493 336.404C301.165 338.609 306.908 372.013 306.908 372.013L322.966 367.736C322.98 367.736 311.51 326.355 303.962 320.361Z" fill="#FFA8A7"/>
<path d="M177.126 430.192L176.016 429.555C174.255 428.534 172.82 426.062 172.82 424.02V313.301C172.82 311.259 174.255 308.787 176.016 307.766L284.885 244.762C286.646 243.741 289.503 243.741 291.264 244.762L292.359 245.399C294.12 246.42 295.556 248.892 295.556 250.934V361.653C295.556 363.695 294.12 366.167 292.359 367.188L183.52 430.192C181.744 431.213 178.888 431.213 177.126 430.192Z" fill="#B5DA9F"/>
<path opacity="0.4" d="M295.541 250.431C295.319 248.773 293.987 248.166 292.374 249.099L183.505 312.117C182.617 312.62 181.833 313.508 181.241 314.485L173.767 310.178C174.329 309.172 175.143 308.299 176.031 307.781L284.885 244.777C286.661 243.756 289.518 243.756 291.279 244.777L292.389 245.414C293.987 246.361 295.349 248.507 295.541 250.431Z" fill="white"/>
<path opacity="0.1" d="M182.972 430.443C181.211 431.198 178.725 431.109 177.141 430.192L176.016 429.555C174.255 428.534 172.834 426.062 172.834 424.02V313.316C172.834 312.295 173.19 311.155 173.767 310.178L181.241 314.485C180.678 315.492 180.308 316.631 180.308 317.623V428.342C180.308 430.177 181.463 431.035 182.972 430.443Z" fill="#171B1E"/>
<path d="M220.698 324.505C210.101 337.277 202.849 355.096 202.849 370.784C202.849 377.903 204.358 383.764 206.963 388.056L235.438 351.944L220.698 324.505Z" fill="#66A03B"/>
<path d="M250.15 307.411C245.725 307.204 240.722 308.536 235.439 311.599C230.125 314.663 225.123 319.132 220.698 324.49L235.439 351.914L250.15 307.411Z" fill="#27DEBF"/>
<path d="M250.15 307.411C245.725 307.204 240.722 308.536 235.439 311.599C230.125 314.663 225.123 319.132 220.698 324.49L235.439 351.914L250.15 307.411Z" fill="#7CA562"/>
<path d="M265.009 317.83C261.916 311.392 256.662 307.722 250.15 307.411L235.438 351.929L265.009 317.83Z" fill="#27DEBF"/>
<path d="M265.009 317.83L235.439 351.929L206.963 388.041C212.558 397.128 223.199 399.334 235.439 392.259C253.45 381.87 268.058 355.378 268.058 333.089C268.043 327.006 266.948 321.87 265.009 317.83Z" fill="#27DEBF"/>
<path d="M265.009 317.83C261.916 311.392 256.662 307.722 250.15 307.411L235.438 351.929L265.009 317.83Z" fill="#91CA67"/>
<path d="M265.009 317.83L235.439 351.929L206.963 388.041C212.558 397.128 223.199 399.334 235.439 392.259C253.45 381.87 268.058 355.378 268.058 333.089C268.043 327.006 266.948 321.87 265.009 317.83Z" fill="#487029"/>
<path opacity="0.25" d="M265.009 317.83L235.439 351.929L206.963 388.041C212.558 397.128 223.199 399.334 235.439 392.259C253.45 381.87 268.058 355.378 268.058 333.089C268.043 327.006 266.948 321.87 265.009 317.83Z" fill="#171B1E"/>
<path d="M220.698 324.505C210.101 337.277 202.849 355.096 202.849 370.784C202.849 377.903 204.358 383.764 206.963 388.056L235.438 351.944L220.698 324.505Z" stroke="white" stroke-width="1.0194" stroke-miterlimit="10" stroke-linecap="round" stroke-linejoin="round"/>
<path d="M250.15 307.411C245.725 307.204 240.722 308.536 235.439 311.599C230.125 314.663 225.123 319.132 220.698 324.49L235.439 351.914L250.15 307.411Z" stroke="white" stroke-width="1.0194" stroke-miterlimit="10" stroke-linecap="round" stroke-linejoin="round"/>
<path d="M265.009 317.83C261.916 311.392 256.662 307.722 250.15 307.411L235.438 351.929L265.009 317.83Z" stroke="white" stroke-width="1.0194" stroke-miterlimit="10" stroke-linecap="round" stroke-linejoin="round"/>
<path d="M265.009 317.83L235.439 351.929L206.963 388.041C212.558 397.128 223.199 399.334 235.439 392.259C253.45 381.87 268.058 355.378 268.058 333.089C268.043 327.006 266.948 321.87 265.009 317.83Z" stroke="white" stroke-width="1.0194" stroke-miterlimit="10" stroke-linecap="round" stroke-linejoin="round"/>
<path d="M215.503 305.102L255.374 282.088C256.04 281.703 256.587 282.014 256.587 282.784V284.352C256.587 285.122 256.04 286.069 255.374 286.454L215.503 309.468C214.837 309.853 214.289 309.542 214.289 308.772V307.204C214.289 306.434 214.837 305.487 215.503 305.102Z" fill="#171B1E"/>
<path d="M229.77 431.094C219.44 434.069 216.79 432.456 213.209 428.519C211.462 426.595 188.419 397.498 185.607 394.316C182.795 391.134 182.484 390.291 178.281 388.308C174.092 386.309 172.775 386.013 170.748 383.542C168.69 380.981 169.593 379.931 169.49 378.347C169.342 376.157 168.098 375.076 167.95 373.434C167.773 371.376 168.705 370.459 168.661 369.526C168.587 368.061 167.788 367.543 167.699 364.864C167.654 363.932 171.502 360.01 172.849 358.53V365.767C177.097 371.761 183.934 371.199 184.674 370.355C185.414 369.512 185.281 365.19 186.658 362.733C187.99 360.336 190.92 359.374 190.683 361.801C190.565 363.192 190.935 368.076 191.009 370.266C191.083 372.457 191.275 375.728 192.948 378.643C195.168 382.536 228.142 413.675 228.142 413.675" fill="#FFA8A7"/>
<path d="M295.526 324.949C295.526 324.949 294.046 322.714 291.471 321.308C288.881 319.902 287.682 317.697 288.334 316.232C288.807 315.151 290.613 316.217 292.211 316.838C293.795 317.46 298.22 318.822 300.41 320.79C302.601 322.758 303.237 324.268 305.502 324.061C305.502 324.061 303.948 326.014 300.795 326.236C297.672 326.444 295.526 324.949 295.526 324.949Z" fill="#FFA8A7"/>
<path d="M205.513 418.485C221.231 411.721 237.244 406.364 253.154 400.059C260.613 397.099 265.231 395.278 270.944 393.606C276.361 392.022 281.822 392.215 287.239 391.253C287.89 391.12 288.585 391.001 289.311 390.883C298.487 389.181 312.354 386.635 316.128 385.954C316.483 385.88 316.809 385.836 317.105 385.762C317.963 385.673 318.866 385.718 319.754 385.851C322.492 386.532 324.638 388.914 325.423 390.69C326.932 394.035 327.45 396.98 326.355 402.678C326.059 404.188 323.869 408.717 322.477 413.734C319.917 422.954 317.549 434.646 315.906 439.042C315.817 439.234 315.773 439.397 315.699 439.53L322.551 450.69C322.551 450.69 317.949 456.388 304.288 460.354C290.598 464.32 274.007 456.269 274.007 456.269C274.007 456.269 270.5 437.873 269.849 432.708C269.804 432.412 269.73 431.938 269.656 431.405C269.523 430.31 268.354 422.718 268.354 422.718C267.851 421.223 264.136 421.711 252.695 425.071C241.255 428.43 226.011 431.968 226.011 431.968L205.513 418.485Z" fill="#FFA8A7"/>
<path d="M325.112 376.142C320.746 359.122 316.616 342.043 316.616 342.043L299.522 347.726L312.117 401.406L326.355 402.693C329.418 391.963 327.494 385.422 325.112 376.142Z" fill="#FFA8A7"/>
<path d="M306.982 387.257C307.973 387.109 308.003 386.073 307.396 382.846C306.789 379.635 305.827 375.565 305.827 375.565C305.827 375.565 317.312 370.696 324.904 372.368C324.904 372.368 326.162 376.986 327.938 386.369C329.729 395.752 327.746 400.532 322.181 414.8L306.982 387.257Z" fill="#455A64"/>
<path d="M284.16 380.434L286.158 398.061L303.533 400.059L301.017 376.69L284.16 380.434Z" fill="#FFA8A7"/>
<path d="M273.726 352.891C271.876 351.87 270.559 349.902 270.366 347.8C270.366 345.402 271.121 343.789 272.823 342.146C271.121 340.4 270.204 337.869 270.529 335.457C270.855 333.03 272.453 330.795 274.688 329.803C276.923 328.812 279.72 329.152 281.57 330.736C281.244 328.545 282.562 326.325 284.456 325.2C286.35 324.076 288.718 323.928 290.879 324.401C293.04 324.875 295.038 325.896 296.947 326.991C298.649 327.968 300.603 329.196 302.408 329.981C304.184 330.75 306.493 331.283 308.299 331.92C314.914 334.214 324.401 340.444 322.433 357.39C321.278 367.351 293.987 372.812 294.135 379.694C294.091 379.65 294.061 379.605 294.017 379.561C291.545 376.586 289.059 373.611 286.587 370.636C284.708 368.372 282.813 366.108 280.934 363.843C279.172 361.727 277.13 359.418 276.997 356.532C276.967 355.822 277.012 355.067 276.627 354.475C276.153 353.764 275.221 353.557 274.422 353.246C274.2 353.128 273.963 353.024 273.726 352.891Z" fill="#263238"/>
<path d="M272.113 358.012C272.113 358.012 267.895 363.799 268.383 364.465C268.872 365.116 271.343 365.9 271.343 365.9L272.113 358.012Z" fill="#F28F8F"/>
<path d="M285.004 339.63C281.082 341.436 274.289 344.81 271.95 358.87C269.553 373.3 271.891 378.066 273.785 380.049C275.058 381.396 282.251 381.722 285.907 380.76C290.465 379.561 300.781 376.053 305.679 368.757C311.437 360.188 313.065 348.496 307.071 343.612C298.62 336.759 288.319 338.091 285.004 339.63Z" fill="#FFA8A7"/>
<path d="M283.242 338.772C282.458 339.098 280.726 338.95 280.09 339.512C278.492 340.918 277.678 343.478 277.959 345.61C278.24 347.726 279.646 349.946 282.014 350.745C281.422 353.024 281.644 355.999 281.733 356.502C282.044 358.426 282.399 360.883 283.568 361.83C283.568 361.83 286.143 356.769 290.524 358.441C294.934 360.128 294.254 366.078 290.598 368.964C286.942 371.85 284.944 369.497 284.944 369.497C284.944 369.497 284.56 376.704 290.021 379.709C290.021 379.709 294.653 383.66 301.683 382.639C305.531 377.311 310.696 375.284 315.033 371.036C326.266 360.04 325.496 343.745 309.912 337.78C305.383 336.049 300.499 335.264 295.674 335.812C293.884 336.019 292.108 336.389 290.391 336.952C289.68 337.188 288.97 337.44 288.289 337.736C287.386 338.121 286.75 338.032 285.788 338.136C284.9 338.224 284.042 338.432 283.242 338.772Z" fill="#263238"/>
<path d="M273.785 380.049C274.895 381.204 280.401 381.603 284.234 381.085L283.968 378.51C283.968 378.51 281.629 379.442 278.151 380.005C274.762 380.552 273.623 379.842 273.563 379.812C273.637 379.886 273.711 379.975 273.785 380.049Z" fill="#F28F8F"/>
<path d="M321.944 419.328C319.473 428.46 317.46 434.883 315.891 439.057C315.802 439.249 315.758 439.412 315.684 439.545L322.536 450.704C322.536 450.704 317.934 456.402 304.273 460.369C290.583 464.335 274.022 458.785 274.022 458.785C274.022 458.785 268.176 423.398 268.028 422.762C285.522 414.948 281.762 391.8 281.762 391.8C282.991 391.593 288.94 390.794 289.666 390.661C297.687 389.24 301.683 387.938 308.994 386.961C315.033 386.162 325.955 404.454 321.944 419.328Z" fill="#171B1E"/>
<path opacity="0.2" d="M317.297 434.824C317.12 435.224 303.785 442.831 299.744 443.956C306.108 443.645 311.407 442.15 315.684 439.545L317.297 434.824Z" fill="black"/>
<path d="M281.748 391.8C277.234 392.008 275.946 391.934 270.219 393.502C264.491 395.086 247.959 402.072 247.959 402.072C247.959 402.072 245.665 417.863 252.666 425.071C252.666 425.071 259.829 423.413 263.514 422.718C266.652 422.126 267.333 421.682 268.013 422.732C268.013 422.732 275.191 421.504 279.483 413.379C283.79 405.254 283.257 394.834 281.748 391.8Z" fill="#455A64"/>
</svg>
