<svg width="98" height="63" viewBox="0 0 98 63" fill="none" xmlns="http://www.w3.org/2000/svg">
<path d="M14.4078 15.0638V22.9998H9.22376V14.9998L0.551758 0.599819H6.05576L12.0398 10.5518L18.0238 0.599819H23.1118L14.4078 15.0638Z" fill="#4C7B29"/>
<path d="M35.16 23.3838C32.8347 23.3838 30.7333 22.8825 28.856 21.8798C27 20.8772 25.5387 19.5012 24.472 17.7518C23.4267 15.9812 22.904 13.9972 22.904 11.7998C22.904 9.60249 23.4267 7.62915 24.472 5.87982C25.5387 4.10915 27 2.72249 28.856 1.71982C30.7333 0.717154 32.8347 0.21582 35.16 0.21582C37.4853 0.21582 39.576 0.717154 41.432 1.71982C43.288 2.72249 44.7493 4.10915 45.816 5.87982C46.8827 7.62915 47.416 9.60249 47.416 11.7998C47.416 13.9972 46.8827 15.9812 45.816 17.7518C44.7493 19.5012 43.288 20.8772 41.432 21.8798C39.576 22.8825 37.4853 23.3838 35.16 23.3838ZM35.16 18.9678C36.4827 18.9678 37.6773 18.6692 38.744 18.0718C39.8107 17.4532 40.6427 16.5998 41.24 15.5118C41.8587 14.4238 42.168 13.1865 42.168 11.7998C42.168 10.4132 41.8587 9.17582 41.24 8.08782C40.6427 6.99982 39.8107 6.15715 38.744 5.55982C37.6773 4.94115 36.4827 4.63182 35.16 4.63182C33.8373 4.63182 32.6427 4.94115 31.576 5.55982C30.5093 6.15715 29.6667 6.99982 29.048 8.08782C28.4507 9.17582 28.152 10.4132 28.152 11.7998C28.152 13.1865 28.4507 14.4238 29.048 15.5118C29.6667 16.5998 30.5093 17.4532 31.576 18.0718C32.6427 18.6692 33.8373 18.9678 35.16 18.9678Z" fill="#4C7B29"/>
<path d="M61.264 23.3838C58.064 23.3838 55.568 22.4985 53.776 20.7278C52.0053 18.9572 51.12 16.4292 51.12 13.1438V0.599819H56.304V12.9518C56.304 16.9625 57.968 18.9678 61.296 18.9678C62.9173 18.9678 64.1547 18.4878 65.008 17.5278C65.8613 16.5465 66.288 15.0212 66.288 12.9518V0.599819H71.408V13.1438C71.408 16.4292 70.512 18.9572 68.72 20.7278C66.9493 22.4985 64.464 23.3838 61.264 23.3838Z" fill="#4C7B29"/>
<path d="M90.8028 22.9998L86.4828 16.7598H81.7148V22.9998H76.5308V0.599819H86.2268C88.2108 0.599819 89.9281 0.930486 91.3788 1.59182C92.8508 2.25315 93.9814 3.19182 94.7708 4.40782C95.5601 5.62382 95.9548 7.06382 95.9548 8.72782C95.9548 10.3918 95.5494 11.8318 94.7388 13.0478C93.9494 14.2425 92.8188 15.1598 91.3468 15.7998L96.3708 22.9998H90.8028ZM90.7068 8.72782C90.7068 7.46915 90.3014 6.50915 89.4908 5.84782C88.6801 5.16515 87.4961 4.82382 85.9388 4.82382H81.7148V12.6318H85.9388C87.4961 12.6318 88.6801 12.2905 89.4908 11.6078C90.3014 10.9252 90.7068 9.96515 90.7068 8.72782Z" fill="#4C7B29"/>
<path d="M3.65576 39.5998H8.83976V57.7758H20.0718V61.9998H3.65576V39.5998Z" fill="#4C7B29"/>
<path d="M33.4413 62.3838C31.1159 62.3838 29.0146 61.8825 27.1373 60.8798C25.2813 59.8772 23.8199 58.5012 22.7533 56.7518C21.7079 54.9812 21.1853 52.9972 21.1853 50.7998C21.1853 48.6025 21.7079 46.6292 22.7533 44.8798C23.8199 43.1092 25.2813 41.7225 27.1373 40.7198C29.0146 39.7172 31.1159 39.2158 33.4413 39.2158C35.7666 39.2158 37.8573 39.7172 39.7133 40.7198C41.5693 41.7225 43.0306 43.1092 44.0973 44.8798C45.1639 46.6292 45.6973 48.6025 45.6973 50.7998C45.6973 52.9972 45.1639 54.9812 44.0973 56.7518C43.0306 58.5012 41.5693 59.8772 39.7133 60.8798C37.8573 61.8825 35.7666 62.3838 33.4413 62.3838ZM33.4413 57.9678C34.7639 57.9678 35.9586 57.6692 37.0253 57.0718C38.0919 56.4532 38.9239 55.5998 39.5213 54.5118C40.1399 53.4238 40.4493 52.1865 40.4493 50.7998C40.4493 49.4132 40.1399 48.1758 39.5213 47.0878C38.9239 45.9998 38.0919 45.1572 37.0253 44.5598C35.9586 43.9412 34.7639 43.6318 33.4413 43.6318C32.1186 43.6318 30.9239 43.9412 29.8573 44.5598C28.7906 45.1572 27.9479 45.9998 27.3293 47.0878C26.7319 48.1758 26.4333 49.4132 26.4333 50.7998C26.4333 52.1865 26.7319 53.4238 27.3293 54.5118C27.9479 55.5998 28.7906 56.4532 29.8573 57.0718C30.9239 57.6692 32.1186 57.9678 33.4413 57.9678Z" fill="#4C7B29"/>
<path d="M64.7293 50.4478H69.4653V59.5358C68.2493 60.4532 66.8413 61.1572 65.2413 61.6478C63.6413 62.1385 62.0306 62.3838 60.4093 62.3838C58.0839 62.3838 55.9933 61.8932 54.1373 60.9118C52.2813 59.9092 50.8199 58.5332 49.7533 56.7838C48.7079 55.0132 48.1853 53.0185 48.1853 50.7998C48.1853 48.5812 48.7079 46.5972 49.7533 44.8478C50.8199 43.0772 52.2919 41.7012 54.1693 40.7198C56.0466 39.7172 58.1586 39.2158 60.5053 39.2158C62.4679 39.2158 64.2493 39.5465 65.8493 40.2078C67.4493 40.8692 68.7933 41.8292 69.8813 43.0878L66.5533 46.1598C64.9533 44.4745 63.0226 43.6318 60.7613 43.6318C59.3319 43.6318 58.0626 43.9305 56.9533 44.5278C55.8439 45.1252 54.9799 45.9678 54.3613 47.0558C53.7426 48.1438 53.4333 49.3918 53.4333 50.7998C53.4333 52.1865 53.7426 53.4238 54.3613 54.5118C54.9799 55.5998 55.8333 56.4532 56.9213 57.0718C58.0306 57.6692 59.2893 57.9678 60.6973 57.9678C62.1906 57.9678 63.5346 57.6478 64.7293 57.0078V50.4478Z" fill="#4C7B29"/>
<path d="M85.1288 62.3838C82.8034 62.3838 80.7021 61.8825 78.8248 60.8798C76.9688 59.8772 75.5074 58.5012 74.4408 56.7518C73.3954 54.9812 72.8728 52.9972 72.8728 50.7998C72.8728 48.6025 73.3954 46.6292 74.4408 44.8798C75.5074 43.1092 76.9688 41.7225 78.8248 40.7198C80.7021 39.7172 82.8034 39.2158 85.1288 39.2158C87.4541 39.2158 89.5448 39.7172 91.4008 40.7198C93.2568 41.7225 94.7181 43.1092 95.7848 44.8798C96.8514 46.6292 97.3848 48.6025 97.3848 50.7998C97.3848 52.9972 96.8514 54.9812 95.7848 56.7518C94.7181 58.5012 93.2568 59.8772 91.4008 60.8798C89.5448 61.8825 87.4541 62.3838 85.1288 62.3838ZM85.1288 57.9678C86.4514 57.9678 87.6461 57.6692 88.7128 57.0718C89.7794 56.4532 90.6114 55.5998 91.2088 54.5118C91.8274 53.4238 92.1368 52.1865 92.1368 50.7998C92.1368 49.4132 91.8274 48.1758 91.2088 47.0878C90.6114 45.9998 89.7794 45.1572 88.7128 44.5598C87.6461 43.9412 86.4514 43.6318 85.1288 43.6318C83.8061 43.6318 82.6114 43.9412 81.5448 44.5598C80.4781 45.1572 79.6354 45.9998 79.0168 47.0878C78.4194 48.1758 78.1208 49.4132 78.1208 50.7998C78.1208 52.1865 78.4194 53.4238 79.0168 54.5118C79.6354 55.5998 80.4781 56.4532 81.5448 57.0718C82.6114 57.6692 83.8061 57.9678 85.1288 57.9678Z" fill="#4C7B29"/>
</svg>
