<svg width="26" height="22" viewBox="0 0 26 22" fill="none" xmlns="http://www.w3.org/2000/svg">
<path d="M6.04038 12.5793L11.2679 18.5586C11.2679 18.5586 11.2679 18.5586 11.2679 18.5586C11.4073 18.7179 11.5127 18.9023 11.5776 19.1012C11.6426 19.3002 11.6657 19.5096 11.6456 19.7174C11.6255 19.9251 11.5626 20.1268 11.4607 20.3107C11.3588 20.4947 11.2202 20.6572 11.053 20.7892L11.0529 20.7892C10.756 21.0235 10.3833 21.1507 9.99972 21.15M6.04038 12.5793L10 21M6.04038 12.5793H23.5C23.9353 12.5793 24.3542 12.4147 24.6641 12.1196C24.9743 11.8242 25.15 11.422 25.15 11.0009C25.15 10.5798 24.9743 10.1776 24.6641 9.88221C24.3542 9.58706 23.9353 9.42245 23.5 9.42245H6.04038L11.2679 3.44317L11.268 3.44307C11.5491 3.12098 11.6855 2.70421 11.6448 2.28447C11.6042 1.86483 11.3903 1.47965 11.0531 1.21272C10.7161 0.945972 10.283 0.818515 9.84899 0.856619C9.41496 0.894727 9.01287 1.09558 8.73199 1.41739L1.23212 9.98791L1.23174 9.98758L1.22443 9.99745C1.16953 10.0716 1.12038 10.1496 1.07742 10.2308L1.06 10.2637V10.301C1.06 10.3181 1.05988 10.3261 1.05944 10.3316M6.04038 12.5793L1 11.0009C1.00141 11.177 1.03701 11.3513 1.105 11.5151M9.99972 21.15L10 21M9.99972 21.15C9.99989 21.15 10.0001 21.15 10.0002 21.15L10 21M9.99972 21.15C9.75861 21.1503 9.52017 21.1001 9.30126 21.0026C9.08219 20.9051 8.88776 20.7625 8.73212 20.5845L8.845 20.4858M10 21C9.77963 21.0003 9.5619 20.9544 9.36227 20.8656C9.16264 20.7767 8.98603 20.647 8.845 20.4858M8.845 20.4858L8.73209 20.5845M8.845 20.4858L8.73209 20.5845M8.73209 20.5845L1.23212 12.0139L1.22403 12.0046L1.22443 12.0043C1.17667 11.9398 1.13326 11.8724 1.0945 11.8025M8.73209 20.5845L1.345 11.9151C1.29454 11.8469 1.24942 11.7753 1.21 11.7008M1.0945 11.8025C1.10455 11.8102 1.11495 11.8176 1.12564 11.8249L1.21 11.7008M1.0945 11.8025C1.0887 11.7921 1.08301 11.7816 1.07742 11.771L1.21 11.7008M1.0945 11.8025C1.04652 11.766 1.00646 11.7242 0.981821 11.6706C0.960332 11.6238 0.955957 11.5776 0.955137 11.5446M1.21 11.7008C1.105 11.6294 1.105 11.5866 1.105 11.5151M1.105 11.5151L0.966463 11.5726C0.962593 11.5633 0.958817 11.554 0.955137 11.5446M1.105 11.5151H0.955C0.955 11.517 0.954991 11.519 0.954982 11.5212C0.954952 11.5279 0.954917 11.5357 0.955137 11.5446M0.955137 11.5446C0.887152 11.3713 0.851492 11.1876 0.850005 11.0021L0.849986 10.9997C0.851573 10.8041 0.891114 10.6107 0.966463 10.4291L0.983624 10.3878L1.02064 10.3626C1.04433 10.3465 1.05511 10.3363 1.05944 10.3316M1.05944 10.3316C1.05938 10.3325 1.05931 10.3332 1.05923 10.3339C1.0591 10.3351 1.05901 10.3356 1.05902 10.3356C1.05903 10.3356 1.0594 10.3337 1.06057 10.3312C1.06135 10.3295 1.06195 10.3286 1.06196 10.3286C1.06197 10.3286 1.0613 10.3296 1.05944 10.3316Z" fill="#171B1E" stroke="#171B1E" stroke-width="0.3"/>
</svg>
