<svg width="103" height="102" viewBox="0 0 103 102" fill="none" xmlns="http://www.w3.org/2000/svg">
<rect x="0.5" width="102" height="102" rx="51" fill="#E7F2E7"/>
<path d="M66.317 32.137H37.5907C36.2775 32.1391 35.0186 32.6617 34.0901 33.5903C33.1615 34.5189 32.6389 35.7777 32.6367 37.0909V63.5957H38.0528C38.6979 63.5957 39.3166 63.852 39.7728 64.3081C40.2289 64.7643 40.4852 65.383 40.4852 66.0281V70.755H66.317C67.6302 70.7529 68.889 70.2303 69.8176 69.3017C70.7462 68.3731 71.2688 67.1143 71.271 65.8011V37.0909C71.2688 35.7777 70.7462 34.5189 69.8176 33.5903C68.889 32.6617 67.6302 32.1391 66.317 32.137ZM51.9498 55.1716H39.042C38.7194 55.1716 38.4101 55.0435 38.182 54.8154C37.9539 54.5873 37.8258 54.278 37.8258 53.9554C37.8258 53.6328 37.9539 53.3235 38.182 53.0954C38.4101 52.8673 38.7194 52.7392 39.042 52.7392H51.9498C52.2723 52.7392 52.5817 52.8673 52.8098 53.0954C53.0378 53.3235 53.166 53.6328 53.166 53.9554C53.166 54.278 53.0378 54.5873 52.8098 54.8154C52.5817 55.0435 52.2723 55.1716 51.9498 55.1716ZM51.9498 48.7663H39.042C38.7194 48.7663 38.4101 48.6382 38.182 48.4101C37.9539 48.182 37.8258 47.8727 37.8258 47.5501C37.8258 47.2276 37.9539 46.9182 38.182 46.6902C38.4101 46.4621 38.7194 46.334 39.042 46.334H51.9498C52.2723 46.334 52.5817 46.4621 52.8098 46.6902C53.0378 46.9182 53.166 47.2276 53.166 47.5501C53.166 47.8727 53.0378 48.182 52.8098 48.4101C52.5817 48.6382 52.2723 48.7663 51.9498 48.7663ZM51.9498 42.3692H39.042C38.7194 42.3692 38.4101 42.241 38.182 42.013C37.9539 41.7849 37.8258 41.4755 37.8258 41.153C37.8258 40.8304 37.9539 40.5211 38.182 40.293C38.4101 40.0649 38.7194 39.9368 39.042 39.9368H51.9498C52.2723 39.9368 52.5817 40.0649 52.8098 40.293C53.0378 40.5211 53.166 40.8304 53.166 41.153C53.166 41.4755 53.0378 41.7849 52.8098 42.013C52.5817 42.241 52.2723 42.3692 51.9498 42.3692ZM61.0469 59.8985C61.005 59.948 60.9529 59.9878 60.894 60.0151C60.8352 60.0424 60.7712 60.0565 60.7063 60.0565C60.6415 60.0565 60.5775 60.0424 60.5186 60.0151C60.4598 59.9878 60.4077 59.948 60.3658 59.8985L56.8308 55.7878H58.1848C58.303 55.7878 58.4165 55.7408 58.5001 55.6572C58.5837 55.5736 58.6307 55.4601 58.6307 55.3419V41.5989C58.6307 41.4807 58.6777 41.3672 58.7613 41.2836C58.845 41.2 58.9584 41.153 59.0767 41.153H62.3198C62.4388 41.153 62.5531 41.1997 62.638 41.2831C62.723 41.3665 62.7717 41.4799 62.7739 41.5989V55.3419C62.7728 55.4007 62.7835 55.4592 62.8056 55.5138C62.8276 55.5684 62.8604 55.618 62.902 55.6596C62.9437 55.7013 62.9932 55.7341 63.0479 55.7561C63.1025 55.7781 63.1609 55.7889 63.2198 55.7878H64.5576L61.0469 59.8985Z" fill="#4C7B29"/>
<path d="M32.6367 64.9172L39.0582 70.7712V66.5713C39.0582 66.1412 38.8873 65.7287 38.5832 65.4246C38.2791 65.1205 37.8667 64.9497 37.4366 64.9497L32.6367 64.9172Z" fill="#4C7B29"/>
</svg>
