<svg width="102" height="76" viewBox="0 0 102 76" fill="none" xmlns="http://www.w3.org/2000/svg">
<path d="M82.875 38C82.6519 38 82.4415 38.057 82.2247 38.0633C82.6587 35.9585 82.8766 33.8153 82.875 31.6667C82.875 14.1803 68.6014 0 51 0C33.3986 0 19.125 14.1803 19.125 31.6667C19.125 31.7743 19.1569 31.8757 19.1569 31.9833C8.34488 33.516 0 42.6677 0 53.8333C0 59.7123 2.35077 65.3505 6.53518 69.5075C10.7196 73.6646 16.3949 76 22.3125 76H38.301C39.1315 76 39.9538 75.8375 40.7211 75.5218C41.4884 75.206 42.1855 74.7432 42.7727 74.1599C43.36 73.5765 43.8258 72.8839 44.1436 72.1216C44.4614 71.3594 44.625 70.5424 44.625 69.7173V50.6667H31.0972L51 25.3333L70.9027 50.6667H57.375V69.7173C57.375 73.188 60.2055 76 63.699 76H82.875C85.3865 76 87.8735 75.5086 90.1938 74.5537C92.5142 73.5989 94.6225 72.1993 96.3984 70.435C98.1743 68.6707 99.5831 66.5762 100.544 64.271C101.505 61.9658 102 59.4951 102 57C102 54.5049 101.505 52.0342 100.544 49.729C99.5831 47.4238 98.1743 45.3293 96.3984 43.565C94.6225 41.8007 92.5142 40.4011 90.1938 39.4463C87.8735 38.4914 85.3865 38 82.875 38Z" fill="#717579"/>
</svg>
